<svg width="327" height="136" viewBox="0 0 327 136" fill="none" xmlns="http://www.w3.org/2000/svg">
<g clip-path="url(#clip0_82_1701)">
<rect width="327" height="136" rx="24" fill="#0414AA"/>
<path d="M173.808 114.461L195.325 186.446L347.888 140.844L327.826 73.7257C292.568 74.8178 265.911 92.2336 255.698 118.938C252.507 117.887 247.23 110.329 232.273 107.67C204.098 103.437 179.339 110.506 173.808 114.461Z" fill="#D1BB6C"/>
<path d="M286.551 96.8328L293.694 99.8282C296.337 91.8213 301.611 87.9564 305.642 80.7105C309.27 74.1892 308.333 65.5351 306.298 59.539C304.459 54.1212 305.204 49.7868 308.626 44.609C312.048 39.4311 310.257 31.2373 308.096 26.6932C306.291 22.8983 308.684 18.8972 311.518 15.9748C307.169 16.1172 300.981 21.9228 302.958 28.2918C304.466 33.1539 302.178 37.4148 298.045 42.1384C293.584 47.2378 292.706 54.9912 293.418 59.1425C294.144 63.3787 293.462 67.5611 288.006 75.4602C282.097 84.0141 284.357 93.1131 286.551 96.8328Z" fill="#339F32"/>
<path d="M297.449 76.3814C291.306 85.065 288.997 93.2713 289.502 97.8916L290.718 98.4014C290.623 97.3489 290.723 96.2588 291.096 94.0916C291.997 88.8481 294.807 84.3882 299.655 76.2342C304.504 68.0801 301.778 62.6476 300.581 59.1077C299.385 55.5677 299.954 50.2847 300.909 48.5219C303.277 44.1531 306.9 39.7745 307.111 36.2885C307.322 32.8024 305.733 28.9192 305.409 26.2814C305.158 24.237 307.095 20.5545 307.669 19.1865C305.914 21.6675 305.014 22.6335 304.84 25.5067C304.629 28.9928 306.12 31.405 306.214 35.0186C306.307 38.6322 303.709 41.6536 300.316 47.3795C297.261 52.5328 298.796 58.3924 299.512 60.8042C300.179 63.0498 301.874 70.1265 297.449 76.3814Z" fill="#1F8B1E"/>
<path d="M293.243 86.9049C290.358 90.6361 288.076 95.5522 285.548 100.491L276.832 100.039C276.738 93.5205 277.202 82.0378 278.071 78.114C279.303 72.5492 282.568 67.5442 282.101 62.381C281.405 54.6802 279.965 41.5044 283.142 35.5159C286.319 29.5274 288.266 23.65 288.246 17.9506C288.226 12.2512 284.094 7.66734 285.259 1.36499C286.357 -4.5766 293.354 -7.79506 296.997 -8.62035C295.745 -7.8461 292.155 -5.68428 290.423 -1.82878C288.566 2.30524 294.754 10.4214 298.081 17.0611C301.95 24.7829 299.563 34.6453 297.6 41.8926C295.742 48.7534 299.538 55.1027 301.568 63.8428C303.598 72.5829 297.102 81.9141 293.243 86.9049Z" fill="#017600"/>
<path d="M287.76 82.4167C284.912 86.9677 282.639 95.2659 282.007 99.8622L280.762 100.077C280.268 92.2558 283.924 83.7191 286.15 79.2754C287.617 76.3464 291.867 67.8192 290.507 59.9338C288.858 50.3679 287.108 46.4169 290.314 37.7442C292.939 30.6425 293.187 26.992 293.04 23.8122C292.843 19.5725 291.088 13.0372 288.474 6.0091C286.591 0.946732 288.255 -2.28662 289.046 -3.06421C287.157 -0.387981 288.29 4.71785 290.535 9.28635C291.665 11.5855 293.721 18.7991 294.256 24.6708C294.736 29.9302 291.006 37.4344 290.242 43.5259C289.613 48.5492 293.025 58.6694 293.513 64.9713C294.035 71.719 290.579 77.9115 287.76 82.4167Z" fill="#0A620A"/>
<path d="M267.615 80.4815C268.25 85.3094 273.297 89.5729 272.16 95.4444L278.032 97.9066C283.335 87.4894 277.398 84.8628 281.062 76.1253C283.525 70.2538 285.369 67.7772 284.85 59.6472C284.282 50.7453 276.899 45.0927 276.327 40.8963C275.759 36.7295 279.009 32.4841 277.842 23.8501C276.895 16.8422 268.499 10.1499 262.88 7.18262C265.531 10.8444 270.835 19.4938 270.835 24.7971C270.835 31.4262 267.615 34.2672 266.478 39.7599C265.342 45.2526 269.319 50.7453 270.835 53.0181C272.35 55.2909 273.147 61.6298 270.835 66.4657C268.751 70.822 266.668 73.2842 267.615 80.4815Z" fill="#339F32"/>
<path d="M274.812 87.6788C276.138 90.141 275.001 94.6236 274.244 96.2019L275.001 96.5807C275.948 95.2549 276.592 93.7397 276.895 91.8456C277.653 87.1106 274.93 85.9995 274.433 79.5345C274.054 74.61 276.706 71.9583 278.789 65.708C280.052 61.92 281.413 59.8378 278.032 54.3439C275.001 49.4194 271.592 44.1161 272.539 38.8128C273.614 32.7941 276.002 27.8275 274.433 22.3348C273.827 20.2135 270.014 14.8849 268.183 12.4858C269.256 14.2536 272.032 18.4772 273.297 21.7666C275.191 26.6911 272.293 32.6615 271.213 39.9493C270.456 45.0631 276.138 53.2075 278.221 56.9955C280.223 60.6353 277.238 66.3477 274.244 72.3371C271.782 77.2616 272.843 84.0214 274.812 87.6788Z" fill="#1F8B1E"/>
<path d="M271.534 77.1095C276.189 84.1473 272.391 91.1309 269.203 93.8691L263.922 94.8093C260.646 88.3499 262.345 84.4596 261.445 80.899C260.41 76.8047 255.007 68.6242 255.962 63.5376C257.127 57.331 258.888 53.8478 255.869 47.3425C253.454 42.1383 255.282 33.8487 258.08 31.4016C257.545 34.8632 257.224 41.5202 258.888 44.1473C260.694 46.9997 263.18 51.9327 262.891 59.912C262.644 66.733 266.266 69.1444 271.534 77.1095Z" fill="#5DDD5C"/>
<path d="M266.954 79.3867C269.081 83.1272 269.263 87.8786 267.347 93.5351L266.574 93.6727C267.491 89.1242 267.504 85.463 267.058 82.956C266.53 79.9936 264.291 77.9953 262.968 74.9139C261.379 71.2105 259.022 66.1819 259.442 63.3166C259.862 60.4513 260.619 55.0012 258.671 50.0327C257.113 46.0579 255.374 39.7235 256.386 37.9486C255.571 40.087 257.004 45.1472 259.278 50.4562C261.463 55.5583 260.151 61.33 260.117 64.1265C260.088 66.5235 263.338 73.0298 266.954 79.3867Z" fill="#49C948"/>
<path d="M171.086 113.86C176.106 120.323 172.949 127.356 170.067 130.239L165.03 131.537C161.386 125.532 162.742 121.645 161.609 118.268C160.307 114.385 154.479 106.873 155.028 101.884C155.697 95.7961 157.143 92.298 153.744 86.2298C151.025 81.3752 152.183 73.2243 154.708 70.6518C154.445 74.0387 154.626 80.4996 156.428 82.9175C158.385 85.5427 161.152 90.1297 161.461 97.8671C161.724 104.481 165.405 106.546 171.086 113.86Z" fill="#5DDD5C"/>
<path d="M166.825 116.4C169.158 119.86 169.684 124.441 168.248 130.053L167.51 130.243C168.063 125.776 167.805 122.235 167.188 119.844C166.46 117.018 164.147 115.251 162.641 112.368C160.831 108.904 158.181 104.215 158.376 101.414C158.571 98.6119 158.901 93.2858 156.652 88.6247C154.852 84.8959 152.704 78.8986 153.552 77.1076C152.921 79.2355 154.68 84.0232 157.27 88.9895C159.759 93.7622 158.916 99.4402 159.089 102.147C159.238 104.467 162.86 110.519 166.825 116.4Z" fill="#49C948"/>
<path d="M170.596 122.294C173.627 125.482 176.211 129.828 179.026 134.171L187.072 132.925C186.541 126.867 185.02 116.255 183.841 112.696C182.17 107.649 178.665 103.314 178.608 98.478C178.524 91.2655 178.609 78.9018 175.093 73.6459C171.577 68.3899 169.212 63.1205 168.69 57.8295C168.167 52.5385 171.568 47.8926 169.888 42.1545C168.305 36.7449 161.507 34.4221 158.047 34.002C159.283 34.6017 162.82 36.2672 164.793 39.6807C166.908 43.3409 161.936 51.4599 159.479 57.9373C156.621 65.4703 159.772 74.3962 162.281 80.9353C164.657 87.1259 161.736 93.3784 160.682 101.682C159.627 109.985 166.541 118.028 170.596 122.294Z" fill="#017600"/>
<path d="M175.258 117.608C178.333 121.561 181.23 129.047 182.252 133.252L183.428 133.333C183.144 126.028 178.941 118.453 176.454 114.54C174.815 111.961 170.062 104.452 170.575 97.0048C171.198 87.9711 172.447 84.1385 168.649 76.3944C165.539 70.053 164.962 66.6889 164.797 63.7241C164.578 59.7709 165.586 53.5397 167.345 46.7695C168.612 41.8929 166.762 39.0502 165.953 38.4037C167.96 40.708 167.393 45.5537 165.743 50.0064C164.913 52.2472 163.69 59.1366 163.75 64.6363C163.804 69.5626 167.978 76.1725 169.264 81.7531C170.325 86.3549 168.119 96.0703 168.264 101.965C168.42 108.276 172.214 113.695 175.258 117.608Z" fill="#0A620A"/>
<path d="M182.036 127.724L191.247 128.359C191.152 118.31 195.618 111.924 197.383 102.2C198.971 93.4495 194.589 84.0458 189.99 78.0627C185.834 72.6567 185.009 67.4805 186.881 60.3243C188.753 53.1681 183.584 44.6121 179.401 40.3154C175.907 36.7272 177.069 31.2941 179.144 26.9085C174.292 28.7398 169.541 37.6665 174.218 44.0928C177.787 48.9987 176.842 54.6849 173.995 61.6015C170.92 69.0686 172.908 78.1531 175.306 82.5633C177.752 87.0638 178.59 92.044 175.468 103.052C172.087 114.973 178.133 124.37 182.036 127.724Z" fill="#339F32"/>
<path d="M186.476 100.464C182.881 112.621 183.428 122.766 185.773 127.784L187.341 127.893C186.83 126.742 186.523 125.473 186.111 122.885C185.114 116.623 186.571 110.512 188.909 99.4502C191.247 88.3882 186.084 83.3066 183.374 79.7724C180.664 76.2382 179.277 70.0594 179.678 67.7035C180.671 61.865 183.077 55.5333 181.975 51.5193C180.874 47.5054 177.59 43.7347 176.211 40.883C175.143 38.673 175.914 33.7741 176.036 32.0104C175.008 35.4838 174.364 36.9193 175.272 40.2275C176.373 44.2415 178.982 46.3904 180.475 50.4313C181.969 54.4723 180.199 58.879 178.57 66.6426C177.103 73.6299 181.086 79.6512 182.82 82.097C184.435 84.3743 189.065 91.7073 186.476 100.464Z" fill="#1F8B1E"/>
<path d="M181.975 104.289C176.158 115.544 182.951 125.359 188.152 128.933L196.186 129.487C200.038 119.317 196.875 113.783 197.646 108.323C198.532 102.044 205.282 88.9627 203.038 81.5227C200.301 72.4446 197.112 67.5279 200.572 57.3308C203.339 49.1731 199.276 37.0921 194.706 33.8891C196.062 38.9707 197.612 48.8569 195.551 53.0466C193.313 57.5953 190.396 65.3594 192.111 77.2249C193.578 87.3679 188.558 91.5505 181.975 104.289Z" fill="#5DDD5C"/>
<path d="M189.179 106.951C186.604 112.878 187.098 120 190.868 128.136L192.044 128.217C189.942 121.575 189.335 116.111 189.598 112.296C189.909 107.789 192.93 104.446 194.409 99.6329C196.186 93.8485 198.896 85.9624 197.808 81.7525C196.72 77.5426 194.713 69.5282 196.821 61.7976C198.508 55.6132 200.085 45.8769 198.288 43.3902C199.849 46.4513 198.524 54.236 195.983 62.5274C193.542 70.4957 196.429 78.9009 196.93 83.0702C197.358 86.644 193.554 96.8797 189.179 106.951Z" fill="#49C948"/>
<path d="M262.9 87.9846C215.535 84.4326 166.471 115.92 148.082 135.522L155.635 181.623L352.017 149.453L345.924 112.258C338.006 107.145 312.701 91.7193 262.9 87.9846Z" fill="#F5F190"/>
<path d="M24.32 89C25.7333 89 27.0533 89.3733 28.28 90.12C29.5067 90.84 30.5733 91.8267 31.48 93.08C32.4133 94.3333 33.1467 95.8133 33.68 97.52C34.2133 99.2267 34.48 101.04 34.48 102.96C34.48 104.88 34.2133 106.693 33.68 108.4C33.1467 110.107 32.4133 111.587 31.48 112.84C30.5733 114.093 29.5067 115.093 28.28 115.84C27.0533 116.56 25.7333 116.92 24.32 116.92C22.9333 116.92 21.6133 116.56 20.36 115.84C19.1333 115.093 18.0667 114.093 17.16 112.84C16.2533 111.587 15.5333 110.107 15 108.4C14.4667 106.693 14.2 104.88 14.2 102.96C14.2 101.04 14.4667 99.2267 15 97.52C15.5333 95.8133 16.2533 94.3333 17.16 93.08C18.0667 91.8267 19.1333 90.84 20.36 90.12C21.6133 89.3733 22.9333 89 24.32 89ZM23.84 106.52C24.24 106.52 24.6133 106.373 24.96 106.08C25.3067 105.787 25.6133 105.4 25.88 104.92C26.1467 104.413 26.3467 103.827 26.48 103.16C26.64 102.467 26.72 101.747 26.72 101C26.72 100.227 26.64 99.5067 26.48 98.84C26.3467 98.1467 26.1467 97.56 25.88 97.08C25.6133 96.5733 25.3067 96.1733 24.96 95.88C24.6133 95.5867 24.24 95.44 23.84 95.44C23.44 95.44 23.0533 95.5867 22.68 95.88C22.3333 96.1733 22.0267 96.5733 21.76 97.08C21.52 97.56 21.32 98.1467 21.16 98.84C21 99.5067 20.92 100.227 20.92 101C20.92 101.747 21 102.467 21.16 103.16C21.32 103.827 21.52 104.413 21.76 104.92C22.0267 105.4 22.3333 105.787 22.68 106.08C23.0533 106.373 23.44 106.52 23.84 106.52ZM46.6241 96.4C46.2774 96.4 45.9307 96.4667 45.5841 96.6C45.3707 96.68 45.0907 96.88 44.7441 97.2C44.4241 97.52 44.0907 97.9333 43.7441 98.44C43.3974 98.92 43.0641 99.48 42.7441 100.12C42.4507 100.733 42.1974 101.387 41.9841 102.08C41.7974 102.773 41.6907 103.48 41.6641 104.2C41.6374 104.893 41.7307 105.573 41.9441 106.24C42.2641 107.173 42.6907 107.813 43.2241 108.16C43.7841 108.507 44.3841 108.68 45.0241 108.68C45.7174 108.68 46.4107 108.56 47.1041 108.32C47.7974 108.08 48.4107 107.893 48.9441 107.76C49.1307 107.707 49.3307 107.667 49.5441 107.64C49.7841 107.613 50.0241 107.6 50.2641 107.6C50.8241 107.6 51.4107 107.667 52.0241 107.8C52.6374 107.907 53.2107 108.093 53.7441 108.36C54.2774 108.627 54.7307 108.947 55.1041 109.32C55.5041 109.693 55.7441 110.147 55.8241 110.68C55.9307 111.32 55.8107 112.013 55.4641 112.76C55.1441 113.48 54.5574 114.16 53.7041 114.8C52.8774 115.44 51.7707 115.973 50.3841 116.4C48.9974 116.8 47.3041 117 45.3041 117C43.3041 117 41.6374 116.733 40.3041 116.2C38.9974 115.667 37.9441 114.987 37.1441 114.16C36.3441 113.333 35.7574 112.427 35.3841 111.44C35.0374 110.427 34.8241 109.453 34.7441 108.52C34.6641 107.587 34.7841 106.36 35.1041 104.84C35.4241 103.293 35.8907 101.693 36.5041 100.04C37.1174 98.3867 37.8374 96.8 38.6641 95.28C39.5174 93.7333 40.3974 92.4933 41.3041 91.56C42.2107 90.6533 43.1974 90 44.2641 89.6C45.3307 89.2 46.4107 89 47.5041 89C48.6507 89 49.7441 89.2 50.7841 89.6C51.8241 89.9733 52.7307 90.5067 53.5041 91.2C54.2774 91.8667 54.8774 92.6667 55.3041 93.6C55.7574 94.5067 56.0641 95.4533 56.2241 96.44C56.4107 97.4267 56.4641 98.4 56.3841 99.36C56.3307 100.293 56.1574 101.133 55.8641 101.88C55.5707 102.68 55.0774 103.267 54.3841 103.64C53.7174 104.013 52.9974 104.2 52.2241 104.2C51.5841 104.2 50.9574 104.08 50.3441 103.84C49.7307 103.6 49.2107 103.253 48.7841 102.8C48.4641 102.427 48.2107 102.013 48.0241 101.56C47.8641 101.08 47.7441 100.6 47.6641 100.12C47.6107 99.6133 47.5841 99.1333 47.5841 98.68C47.6107 98.2 47.6374 97.8 47.6641 97.48C47.6907 97.1867 47.5974 96.9333 47.3841 96.72C47.1974 96.5067 46.9441 96.4 46.6241 96.4ZM76.0144 89.84C76.5477 90.1867 76.961 90.64 77.2544 91.2C77.5477 91.7333 77.7344 92.2667 77.8144 92.8C77.8944 93.3333 77.881 93.8267 77.7744 94.28C77.6677 94.7333 77.481 95.0533 77.2144 95.24C76.9744 95.4 76.681 95.52 76.3344 95.6C75.9877 95.6533 75.601 95.68 75.1744 95.68C74.641 95.68 74.041 95.64 73.3744 95.56C72.7077 95.4533 71.9877 95.3333 71.2144 95.2C70.4677 95.04 69.7077 94.96 68.9344 94.96C68.001 94.96 67.161 95.12 66.4144 95.44C65.6677 95.76 65.121 96.2667 64.7744 96.96C64.561 97.44 64.4544 97.8933 64.4544 98.32C64.4544 98.7467 64.5077 99.12 64.6144 99.44C64.721 99.8133 64.881 100.16 65.0944 100.48L65.3344 100.64C66.1077 100.587 66.8144 100.587 67.4544 100.64C68.0677 100.693 68.521 100.907 68.8144 101.28C69.1344 101.653 69.2277 102.32 69.0944 103.28C69.0144 103.76 68.8944 104.133 68.7344 104.4C68.5744 104.64 68.3744 104.827 68.1344 104.96C67.8944 105.067 67.6144 105.133 67.2944 105.16C66.9744 105.187 66.6144 105.213 66.2144 105.24H65.6144L65.3744 105.44C65.2944 105.573 65.241 105.787 65.2144 106.08C65.1877 106.347 65.201 106.64 65.2544 106.96C65.3077 107.28 65.4144 107.6 65.5744 107.92C65.7344 108.213 65.9477 108.44 66.2144 108.6C66.5344 108.76 66.881 108.84 67.2544 108.84C67.7877 108.84 68.3744 108.707 69.0144 108.44C69.681 108.147 70.3477 107.773 71.0144 107.32C71.7077 106.867 72.3877 106.64 73.0544 106.64C73.5877 106.64 74.0677 106.76 74.4944 107C74.9477 107.24 75.321 107.56 75.6144 107.96C75.8544 108.28 76.0677 108.707 76.2544 109.24C76.4677 109.747 76.5744 110.293 76.5744 110.88C76.601 111.44 76.5077 112.027 76.2944 112.64C76.081 113.227 75.6944 113.76 75.1344 114.24C74.5744 114.72 73.8277 115.147 72.8944 115.52C71.9877 115.867 70.9877 116.147 69.8944 116.36C68.8277 116.573 67.721 116.733 66.5744 116.84C65.4277 116.947 64.3344 117 63.2944 117C62.2544 117 61.3877 116.813 60.6944 116.44C60.001 116.067 59.4544 115.6 59.0544 115.04C58.6544 114.48 58.401 113.88 58.2944 113.24C58.1877 112.6 58.201 112.013 58.3344 111.48C58.4677 110.947 58.561 110.467 58.6144 110.04C58.6677 109.613 58.6944 109.107 58.6944 108.52C58.6944 107.933 58.681 107.213 58.6544 106.36C58.6544 105.48 58.6677 104.347 58.6944 102.96C58.721 101.547 58.6544 100.333 58.4944 99.32C58.361 98.3067 58.1877 97.4667 57.9744 96.8C57.761 96 57.5077 95.3333 57.2144 94.8C57.081 94.4533 57.001 94.0933 56.9744 93.72C56.921 93.3733 56.921 93 56.9744 92.6C57.0544 92.2 57.201 91.7867 57.4144 91.36C57.6544 90.9333 57.9477 90.5733 58.2944 90.28C58.641 89.9867 59.001 89.76 59.3744 89.6C59.7744 89.4133 60.1744 89.28 60.5744 89.2C60.9744 89.0933 61.3344 89.0267 61.6544 89C61.9744 88.9733 62.3344 88.9867 62.7344 89.04C63.161 89.0667 63.641 89.1067 64.1744 89.16C64.7344 89.2133 65.3477 89.2533 66.0144 89.28C66.681 89.3067 67.441 89.3067 68.2944 89.28C69.201 89.2533 70.0144 89.2 70.7344 89.12C71.481 89.04 72.1877 89 72.8544 89C73.4144 89 73.9477 89.0667 74.4544 89.2C74.9877 89.3067 75.5077 89.52 76.0144 89.84ZM96.9547 110.6C97.328 111.373 97.528 112.147 97.5547 112.92C97.608 113.693 97.4747 114.387 97.1547 115C96.8614 115.613 96.3814 116.12 95.7147 116.52C95.048 116.893 94.1947 117.08 93.1547 117.08C92.1147 117.08 91.2747 116.88 90.6347 116.48C89.9947 116.08 89.488 115.6 89.1147 115.04C88.7414 114.453 88.4614 113.853 88.2747 113.24C88.088 112.627 87.928 112.107 87.7947 111.68C87.528 110.96 87.1947 110.6 86.7947 110.6C86.5014 110.6 86.2347 110.827 85.9947 111.28C85.7547 111.733 85.608 112.493 85.5547 113.56C85.5014 114.467 85.3414 115.173 85.0747 115.68C84.8347 116.16 84.528 116.507 84.1547 116.72C83.808 116.933 83.4214 117.053 82.9947 117.08C82.568 117.107 82.1547 117.107 81.7547 117.08C81.168 117.027 80.608 116.92 80.0747 116.76C79.568 116.6 79.1547 116.347 78.8347 116C78.5147 115.627 78.3147 115.133 78.2347 114.52C78.1547 113.907 78.248 113.12 78.5147 112.16C78.808 111.2 78.968 110.28 78.9947 109.4C79.0214 108.493 78.9814 107.587 78.8747 106.68C78.768 105.747 78.6214 104.773 78.4347 103.76C78.2747 102.747 78.1547 101.653 78.0747 100.48C77.968 99.3067 78.0747 98.0267 78.3947 96.64C78.7414 95.2533 79.3414 93.9867 80.1947 92.84C81.048 91.6667 82.1947 90.7067 83.6347 89.96C85.0747 89.2133 86.848 88.9067 88.9547 89.04C90.368 89.12 91.528 89.3467 92.4347 89.72C93.3414 90.0933 94.0614 90.5733 94.5947 91.16C95.128 91.7467 95.5014 92.4133 95.7147 93.16C95.928 93.9067 96.048 94.6667 96.0747 95.44C96.128 96.2133 96.1014 96.9867 95.9947 97.76C95.9147 98.5333 95.848 99.2533 95.7947 99.92C95.5814 101.92 95.528 103.813 95.6347 105.6C95.7414 107.36 96.1814 109.027 96.9547 110.6ZM88.9547 100.52C89.088 99 88.9547 97.8133 88.5547 96.96C88.1547 96.08 87.5547 95.6667 86.7547 95.72C86.3547 95.7467 85.9814 96.0267 85.6347 96.56C85.3147 97.0933 85.0347 97.7467 84.7947 98.52C84.5547 99.2933 84.368 100.147 84.2347 101.08C84.1014 102.013 84.0347 102.893 84.0347 103.72C84.0347 104.547 84.0614 105.227 84.1147 105.76C84.1947 106.293 84.288 106.707 84.3947 107C84.528 107.293 84.6747 107.507 84.8347 107.64C84.9947 107.773 85.168 107.853 85.3547 107.88C85.5414 107.907 85.8347 107.907 86.2347 107.88C86.6347 107.853 87.0347 107.813 87.4347 107.76C87.9147 107.68 88.4214 107.6 88.9547 107.52C88.9014 106.747 88.8747 105.96 88.8747 105.16C88.848 104.467 88.8347 103.72 88.8347 102.92C88.8614 102.093 88.9014 101.293 88.9547 100.52ZM99.4291 108.84C99.8824 107.64 100.162 106.52 100.269 105.48C100.402 104.413 100.416 103.413 100.309 102.48C100.229 101.547 100.069 100.68 99.8291 99.88C99.6157 99.08 99.3757 98.3333 99.1091 97.64C98.8691 96.9467 98.6424 96.2933 98.4291 95.68C98.2424 95.0667 98.1357 94.5067 98.1091 94C98.0824 93.36 98.1757 92.7867 98.3891 92.28C98.6291 91.7467 98.9491 91.3067 99.3491 90.96C99.7757 90.6133 100.256 90.3467 100.789 90.16C101.349 89.9733 101.936 89.88 102.549 89.88C102.842 89.88 103.109 89.9067 103.349 89.96C103.616 89.9867 103.896 90.0267 104.189 90.08C104.989 90.2667 105.642 90.5867 106.149 91.04C106.682 91.4667 107.122 92.04 107.469 92.76C107.842 93.48 108.162 94.36 108.429 95.4C108.722 96.44 109.042 97.6667 109.389 99.08C109.709 100.493 110.029 101.693 110.349 102.68C110.669 103.667 110.962 104.48 111.229 105.12C111.522 105.76 111.776 106.24 111.989 106.56C112.229 106.88 112.429 107.067 112.589 107.12C112.749 107.2 112.936 107.227 113.149 107.2C113.362 107.173 113.549 107.053 113.709 106.84C113.896 106.6 114.029 106.24 114.109 105.76C114.189 105.28 114.189 104.6 114.109 103.72C114.029 102.84 113.856 101.933 113.589 101C113.349 100.04 113.069 99.0933 112.749 98.16C112.429 97.2267 112.096 96.32 111.749 95.44C111.402 94.56 111.109 93.7467 110.869 93C110.629 92.28 110.642 91.6533 110.909 91.12C111.176 90.56 111.589 90.12 112.149 89.8C112.736 89.4533 113.402 89.2267 114.149 89.12C114.922 88.9867 115.682 88.9733 116.429 89.08C117.949 89.2933 118.882 89.9467 119.229 91.04C119.576 92.1067 119.456 93.68 118.869 95.76C118.576 96.8 118.442 97.7867 118.469 98.72C118.496 99.6533 118.602 100.627 118.789 101.64C119.002 102.627 119.256 103.68 119.549 104.8C119.842 105.92 120.096 107.173 120.309 108.56C120.549 109.92 120.482 111.133 120.109 112.2C119.736 113.24 119.216 114.12 118.549 114.84C117.882 115.56 117.136 116.107 116.309 116.48C115.482 116.827 114.736 117 114.069 117C112.709 117 111.682 116.467 110.989 115.4C110.296 114.333 109.869 112.813 109.709 110.84C109.682 110.333 109.576 109.64 109.389 108.76C109.229 107.88 108.976 107.027 108.629 106.2C108.309 105.347 107.896 104.613 107.389 104C106.909 103.387 106.309 103.08 105.589 103.08C105.216 103.08 104.949 103.253 104.789 103.6C104.629 103.947 104.589 104.547 104.669 105.4C104.722 105.96 104.842 106.507 105.029 107.04C105.216 107.573 105.429 108.12 105.669 108.68C105.909 109.213 106.162 109.787 106.429 110.4C106.696 110.987 106.922 111.64 107.109 112.36C107.482 113.8 107.242 114.933 106.389 115.76C105.536 116.587 104.229 117 102.469 117C101.616 117 100.909 116.88 100.349 116.64C99.7891 116.4 99.3491 116.093 99.0291 115.72C98.7357 115.347 98.5357 114.933 98.4291 114.48C98.3224 114.027 98.2824 113.6 98.3091 113.2C98.3624 112.8 98.4424 112.347 98.5491 111.84C98.6557 111.333 98.7757 110.853 98.9091 110.4C99.0691 109.893 99.2424 109.373 99.4291 108.84Z" fill="white"/>
<path d="M272.5 106.176C271.689 87.8988 264.155 96.6852 263.795 107.09C246.416 106.743 251.195 112.815 260.574 116.507C253.511 129.827 261.22 129.743 269.192 120.233C282.494 132.967 281.911 122.486 277.185 115.183C294.04 105.607 281.085 105.188 272.5 106.176Z" fill="#FF7134"/>
<circle cx="268.508" cy="112.861" r="2.95988" transform="rotate(31.1488 268.508 112.861)" fill="#F44923"/>
<circle cx="268.384" cy="106.116" r="1.47994" transform="rotate(31.1488 268.384 106.116)" fill="#F44923"/>
<circle cx="275.26" cy="110.272" r="1.47994" transform="rotate(31.1488 275.26 110.272)" fill="#F44923"/>
<circle cx="273.638" cy="118.679" r="1.47994" transform="rotate(31.1488 273.638 118.679)" fill="#F44923"/>
<circle cx="264.718" cy="118.722" r="1.47994" transform="rotate(31.1488 264.718 118.722)" fill="#F44923"/>
<circle cx="262.058" cy="111.679" r="1.47994" transform="rotate(31.1488 262.058 111.679)" fill="#F44923"/>
<circle cx="257.202" cy="110.721" r="1.0571" transform="rotate(31.1488 257.202 110.721)" fill="#F44923"/>
<circle cx="268.038" cy="100.966" r="1.0571" transform="rotate(31.1488 268.038 100.966)" fill="#F44923"/>
<circle cx="279.905" cy="109.127" r="1.0571" transform="rotate(31.1488 279.905 109.127)" fill="#F44923"/>
<circle cx="277.181" cy="121.808" r="1.0571" transform="rotate(31.1488 277.181 121.808)" fill="#F44923"/>
<circle cx="261.513" cy="123.208" r="1.0571" transform="rotate(31.1488 261.513 123.208)" fill="#F44923"/>
<path d="M46.5827 32.8086C33.1966 12.7297 30.6867 27.7888 37.3797 39.7804C17.5239 51.2466 27.0616 54.8398 40.1686 52.6087C41.2841 72.4646 49.9291 67.1103 52.4391 50.9354C76.1435 56.2342 68.335 44.8003 58.0165 39.7804C70.5101 17.4705 55.5996 25.8367 46.5827 32.8086Z" fill="#FF7134"/>
<circle cx="46.6368" cy="43.0791" r="3.90425" fill="#F44923"/>
<circle cx="41.8958" cy="35.5493" r="1.95212" fill="#F44923"/>
<circle cx="52.4931" cy="35.5493" r="1.95212" fill="#F44923"/>
<circle cx="56.3974" cy="46.1467" r="1.95212" fill="#F44923"/>
<circle cx="46.3579" cy="52.2817" r="1.95212" fill="#F44923"/>
<circle cx="38.5494" cy="46.1467" r="1.95212" fill="#F44923"/>
<circle cx="32.4141" cy="48.3778" r="1.39437" fill="#F44923"/>
<circle cx="37.9917" cy="29.972" r="1.39437" fill="#F44923"/>
<circle cx="56.9551" cy="31.0872" r="1.39437" fill="#F44923"/>
<circle cx="62.5326" cy="47.2621" r="1.39437" fill="#F44923"/>
<circle cx="45.8001" cy="59.5328" r="1.39437" fill="#F44923"/>
<circle cx="105.5" cy="60.5" r="14.5" stroke="#919BFF" stroke-width="2"/>
<path d="M100.333 50.7929C98.1807 52.0846 95.1668 54.6679 95.1668 59.8346C95.1668 63.7096 98.9501 63.4901 99.4724 59.8346C99.7828 57.6612 101.195 56.3901 103.778 53.8068C106.412 51.1723 103.204 49.0707 100.333 50.7929Z" stroke="#919BFF" stroke-width="2"/>
<path d="M116.695 56.625C117.987 62.2222 112.992 72.6417 103.348 71.2639" stroke="#919BFF" stroke-width="2" stroke-linecap="round"/>
<circle cx="233.5" cy="32.5" r="18.5" stroke="#919BFF" stroke-width="2"/>
<path d="M227 20.2878C224.292 21.9128 220.5 25.1628 220.5 31.6628C220.5 36.5378 225.26 36.2617 225.917 31.6628C226.307 28.9286 228.084 27.3294 231.334 24.0794C234.648 20.7651 230.611 18.1211 227 20.2878Z" stroke="#919BFF" stroke-width="2"/>
<path d="M247.584 27.625C249.209 34.6667 242.926 47.775 230.792 46.0417" stroke="#919BFF" stroke-width="2" stroke-linecap="round"/>
</g>
<defs>
<clipPath id="clip0_82_1701">
<rect width="327" height="136" rx="24" fill="white"/>
</clipPath>
</defs>
</svg>
