<svg width="62" height="62" viewBox="0 0 62 62" fill="none" xmlns="http://www.w3.org/2000/svg">
<path d="M35.3735 5.20034C34.8126 3.47794 34.0413 2.21926 33.0597 1.4243C32.078 0.496849 31.0614 0.0331228 30.0096 0.0331227C28.9579 -0.0993694 27.9412 0.165622 26.9596 0.828086C26.0481 1.35806 25.382 2.28551 24.9613 3.61043C24.4004 5.06786 24.1199 6.79026 24.1199 8.77765C24.1199 10.6325 24.2952 12.7524 24.6458 15.1373C25.0665 17.5222 25.4521 20.437 25.8027 23.8818C26.0831 26.3992 26.1182 28.7178 25.9078 30.8377C25.7676 32.9576 25.5222 35.0112 25.1716 36.9986C24.8912 38.8535 24.5406 40.7747 24.1199 42.762C23.6992 44.7494 23.3486 46.9356 23.0681 49.3204C22.8578 51.8378 22.963 53.9577 23.3837 55.6801C23.8745 57.4025 24.5406 58.7937 25.382 59.8536C26.2935 60.9136 27.3452 61.576 28.5372 61.841C29.7292 62.106 30.8861 62.0397 32.0079 61.6423C33.4804 60.9798 34.497 59.6549 35.058 57.6675C35.689 55.6801 36.0045 53.4277 36.0045 50.9104C36.0045 49.4529 35.9344 48.0618 35.7942 46.7368C35.654 45.2794 35.4787 43.822 35.2683 42.3646C35.058 41.0396 34.9177 39.781 34.8476 38.5885C34.7775 37.3961 34.7425 36.2699 34.7425 35.21C34.7425 33.2226 34.8476 31.6327 35.058 30.4402C35.1281 29.7778 35.1982 29.1815 35.2683 28.6516C35.689 25.6042 36.0396 22.8881 36.3201 20.5033C36.6005 18.1184 36.7408 15.9323 36.7408 13.9449C36.7408 11.03 36.285 8.11519 35.3735 5.20034Z" fill="white"/>
<path d="M56.7997 35.3735C58.5221 34.8126 59.7807 34.0413 60.5757 33.0597C61.5032 32.0781 61.9669 31.0614 61.9669 30.0097C62.0994 28.9579 61.8344 27.9412 61.1719 26.9596C60.6419 26.0481 59.7145 25.382 58.3896 24.9613C56.9321 24.4004 55.2097 24.1199 53.2224 24.1199C51.3675 24.1199 49.2476 24.2952 46.8627 24.6458C44.4778 25.0665 41.563 25.4521 38.1182 25.8027C35.6008 26.0832 33.2822 26.1182 31.1623 25.9079C29.0424 25.7676 26.9888 25.5222 25.0014 25.1717C23.1465 24.8912 21.2253 24.5406 19.238 24.1199C17.2506 23.6992 15.0644 23.3486 12.6796 23.0682C10.1622 22.8578 8.04231 22.963 6.31991 23.3837C4.5975 23.8745 3.20633 24.5406 2.14638 25.382C1.08644 26.2935 0.423977 27.3452 0.158991 28.5372C-0.105994 29.7292 -0.0397478 30.8861 0.357731 32.008C1.02019 33.4804 2.34512 34.4971 4.33251 35.058C6.31991 35.689 8.57228 36.0046 11.0896 36.0046C12.5471 36.0046 13.9382 35.9345 15.2632 35.7942C16.7206 35.654 18.178 35.4787 19.6354 35.2683C20.9604 35.058 22.219 34.9178 23.4115 34.8477C24.6039 34.7775 25.7301 34.7425 26.79 34.7425C28.7774 34.7425 30.3673 34.8477 31.5598 35.058C32.2222 35.1281 32.8185 35.1982 33.3484 35.2683C36.3958 35.689 39.1119 36.0396 41.4967 36.3201C43.8816 36.6006 46.0677 36.7408 48.0551 36.7408C50.97 36.7408 53.8848 36.285 56.7997 35.3735Z" fill="white"/>
</svg>
