<svg width="327" height="136" viewBox="0 0 327 136" fill="none" xmlns="http://www.w3.org/2000/svg">
<g clip-path="url(#clip0_6_2235)">
<rect width="327" height="136" rx="24" fill="#01243F"/>
<circle cx="217.5" cy="67.5" r="52.5" fill="#FEFAEB"/>
<circle cx="230.625" cy="35.625" r="10.625" fill="#F5E9C1"/>
<circle cx="186.562" cy="85.3125" r="8.4375" fill="#F5E9C1"/>
<circle cx="192.5" cy="46.25" r="7.5" fill="#F5E9C1"/>
<circle cx="217.5" cy="71.25" r="11.25" fill="#F5E9C1"/>
<circle cx="249.375" cy="78.75" r="6.25" fill="#F5E9C1"/>
<circle cx="225" cy="107.5" r="7.5" fill="#F5E9C1"/>
<path d="M205.807 82.6489C210.903 79.376 216.127 69.424 218.855 61.0338C219.18 60.0325 220.82 60.0324 221.145 61.0338C223.873 69.424 229.097 79.3759 234.193 82.6488C235.03 83.1863 235.195 84.7836 234.236 85.0492C232.661 85.4858 230.786 85.7018 228.908 85.3173C227.896 85.11 226.713 86.2707 227.265 87.1445C230.719 92.6165 236.759 99.3532 241.841 102.634C242.691 103.183 242.529 104.846 241.545 105.081C238.219 105.875 233.895 106.81 230.781 106.674C229.821 106.633 228.801 107.82 229.326 108.624C233.292 114.698 242.536 123.082 249.06 125.648C249.832 125.952 250.048 126.992 249.34 127.427C245.963 129.502 240.516 131.315 236.19 130.895C235.134 130.793 234.075 132.135 234.833 132.878C240.247 138.188 250.802 144.068 254.842 146.164C255.426 146.467 255.555 147.217 254.987 147.548C249.441 150.784 229.642 151 219.807 151C209.975 151 190.515 150.785 185.011 147.551C184.445 147.218 184.574 146.467 185.158 146.164C189.198 144.069 199.753 138.188 205.167 132.879C205.925 132.135 204.866 130.793 203.81 130.895C199.484 131.315 194.037 129.502 190.66 127.427C189.952 126.992 190.168 125.952 190.94 125.648C197.464 123.082 206.708 114.698 210.674 108.624C211.199 107.82 210.179 106.633 209.219 106.674C206.105 106.81 201.781 105.875 198.455 105.081C197.471 104.846 197.309 103.183 198.159 102.634C203.241 99.3533 209.281 92.6166 212.735 87.1446C213.287 86.2708 212.104 85.1101 211.092 85.3174C209.214 85.7019 207.339 85.4859 205.764 85.0493C204.805 84.7837 204.97 83.1864 205.807 82.6489Z" fill="#00182B"/>
<path d="M268.239 47.6083C278.36 43.5038 289.205 24.362 293.932 9.64175C294.247 8.66311 295.753 8.66311 296.068 9.64175C300.795 24.362 311.64 43.5036 321.761 47.6081C322.705 47.9908 322.924 49.5283 321.96 49.8568C318.185 51.1431 312.836 51.9724 307.828 50.1323C306.862 49.7774 305.78 50.8407 306.331 51.7095C312.414 61.2926 325.207 74.3608 335.153 79.3895C336.08 79.8578 335.967 81.5888 334.969 81.8746C328.272 83.7925 317.968 87.2952 311.923 86.7204C310.969 86.6298 310.002 87.7333 310.527 88.5337C316.921 98.2712 335.055 111.759 347.091 115.242C347.919 115.482 348.145 116.563 347.41 117.013C340.841 121.037 328.476 124.736 320.164 122.605C319.138 122.342 318.144 123.525 318.878 124.288C327.711 133.472 349.771 144.466 356.702 147.674C357.331 147.966 357.484 148.769 356.899 149.141C348.242 154.641 312.298 155 294.663 155C277.031 155 241.704 154.641 233.1 149.143C232.515 148.77 232.669 147.974 233.31 147.71C240.239 144.857 261.447 136.829 271.378 128.895C272.139 128.287 271.567 127.031 270.594 127.004C261.168 126.735 244.575 120.518 237.17 115.913C236.438 115.458 236.667 114.383 237.496 114.149C249.412 110.788 266.326 98.4886 274.55 90.179C275.219 89.5038 274.603 88.3717 273.657 88.4485C265.967 89.072 255.766 87.1547 250.138 83.3488C249.489 82.9102 249.67 81.9524 250.394 81.6549C260.767 77.3939 276.79 62.1319 283.638 51.6924C284.203 50.832 283.138 49.7776 282.172 50.1325C277.164 51.9726 271.815 51.1433 268.04 49.857C267.076 49.5285 267.295 47.991 268.239 47.6083Z" fill="#000A13"/>
<path d="M226.661 67.7677C234.039 64.082 241.759 50.5093 245.404 39.6465C245.731 38.6714 247.269 38.6714 247.596 39.6465C251.241 50.5093 258.961 64.0819 266.339 67.7676C267.249 68.2225 267.435 69.8146 266.459 70.1026C263.847 70.8731 260.473 71.2884 257.209 70.3364C256.221 70.0483 255.175 71.1274 255.777 71.962C261.326 79.6513 273.456 90.1266 281.355 93.6836C282.149 94.041 282.234 95.1547 281.432 95.4935C275.901 97.8305 265.434 100.132 259.695 99.6022C258.741 99.5141 257.796 100.65 258.36 101.424C263.581 108.574 277.038 117.483 286.112 120.184C286.937 120.43 287.157 121.507 286.413 121.941C281.522 124.79 273.012 127.326 266.84 126.208C265.798 126.019 264.818 127.261 265.581 127.996C272.653 134.811 288.277 142.669 293.718 145.214C294.346 145.508 294.467 146.307 293.866 146.651C286.73 150.731 259.63 151 246.241 151C232.854 151 206.219 150.731 199.133 146.653C198.533 146.308 198.654 145.508 199.282 145.214C204.723 142.669 220.347 134.811 227.419 127.996C228.182 127.261 227.202 126.019 226.16 126.208C219.988 127.327 211.478 124.791 206.587 121.941C205.843 121.508 206.063 120.429 206.887 120.18C215.828 117.476 228.427 108.583 233.471 101.439C234.023 100.657 233.073 99.5215 232.122 99.6318C225.617 100.386 212.609 98.0717 207.602 93.9431C207.054 93.4916 207.279 92.6694 207.942 92.4172C216.044 89.3376 230.869 79.5424 237.113 71.8866C237.764 71.0891 236.779 70.0484 235.791 70.3365C232.527 71.2885 229.153 70.8732 226.541 70.1028C225.565 69.8147 225.751 68.2226 226.661 67.7677Z" fill="#000F1B"/>
<path d="M8.78715 44.1464C18.3108 40.1658 28.4454 22.8889 32.9315 9.50368C33.2551 8.53792 34.7449 8.53792 35.0685 9.50368C39.5546 22.8889 49.6892 40.1657 59.2129 44.1462C60.1602 44.5422 60.3604 46.1112 59.3811 46.4199C55.8522 47.5323 50.9866 48.2064 46.3985 46.6412C45.4254 46.3093 44.3643 47.3873 44.9337 48.2433C50.7179 56.9373 62.5806 68.6324 71.9305 73.3251C72.8661 73.7946 72.7325 75.4787 71.7086 75.6961C65.3166 77.0532 55.6949 79.0404 49.9837 78.228C49.0363 78.0932 48.0838 79.1775 48.5921 79.9882C54.7317 89.781 71.9974 107.173 83.4512 111.072C84.2775 111.353 84.5106 112.491 83.7849 112.977C77.6107 117.106 66.3368 122.962 58.5384 121.981C57.4878 121.849 56.5766 123.084 57.4052 123.743C65.9451 130.538 85.9915 134.267 92.6199 136.32C93.2947 136.529 93.4442 137.323 92.836 137.682C84.3918 142.673 50.3969 143 33.6791 143C16.9641 143 -16.447 142.673 -24.8372 137.685C-25.4444 137.324 -25.2947 136.529 -24.6199 136.32C-17.9915 134.267 2.05494 130.538 10.5948 123.743C11.4234 123.084 10.5122 121.849 9.46158 121.981C1.6632 122.962 -9.61066 117.106 -15.7849 112.977C-16.5106 112.491 -16.2775 111.353 -15.4512 111.072C-3.99738 107.173 13.2683 89.7812 19.4079 79.9884C19.9162 79.1776 18.9637 78.0934 18.0163 78.2281C12.3051 79.0405 2.68344 77.0534 -3.70855 75.6963C-4.73253 75.4789 -4.8661 73.7948 -3.93053 73.3253C5.41942 68.6326 17.2821 56.9375 23.0663 48.2435C23.6357 47.3875 22.5746 46.3094 21.6015 46.6414C17.0134 48.2066 12.1477 47.5324 8.61887 46.42C7.63955 46.1113 7.83975 44.5423 8.78715 44.1464Z" fill="#00070E"/>
<path d="M73.8092 83.6004C78.5104 80.4665 83.2918 71.5498 85.8479 63.9446C86.1817 62.9513 87.8183 62.9513 88.1521 63.9446C90.7082 71.5498 95.4896 80.4664 100.191 83.6003C101.023 84.1547 101.167 85.7822 100.197 86.0252C98.8223 86.3699 97.2276 86.5312 95.6223 86.248C94.6057 86.0686 93.435 87.2493 93.9996 88.1135C97.2278 93.0541 102.708 99.037 107.388 102.082C108.241 102.637 108.069 104.333 107.078 104.563C104.034 105.27 100.188 106.066 97.3455 105.981C96.3863 105.952 95.3805 107.152 95.9194 107.946C99.6948 113.509 108.209 121.064 114.301 123.479C115.079 123.788 115.292 124.84 114.571 125.265C111.435 127.114 106.516 128.711 102.531 128.413C101.473 128.333 100.438 129.693 101.211 130.42C106.339 135.244 115.984 140.524 119.814 142.477C120.406 142.779 120.535 143.536 119.952 143.857C114.592 146.803 96.0533 147 86.8182 147C77.5857 147 59.3644 146.803 54.0462 143.859C53.4648 143.537 53.5935 142.779 54.1855 142.477C58.0162 140.524 67.6614 135.244 72.7894 130.42C73.562 129.693 72.527 128.334 71.4692 128.413C67.4836 128.711 62.5645 127.114 59.429 125.265C58.7083 124.841 58.9213 123.788 59.699 123.479C65.7913 121.064 74.3051 113.509 78.0806 107.946C78.6195 107.152 77.6137 105.953 76.6545 105.981C73.8116 106.066 69.9657 105.27 66.9219 104.564C65.9307 104.334 65.7587 102.637 66.6116 102.082C71.2925 99.0371 76.7722 93.0542 80.0003 88.1136C80.565 87.2494 79.3943 86.0687 78.3777 86.2481C76.7724 86.5313 75.1777 86.37 73.8027 86.0253C72.8332 85.7823 72.9775 84.1548 73.8092 83.6004Z" fill="#00182B"/>
<path d="M18.9838 106.84C19.4371 105.64 19.7171 104.52 19.8238 103.48C19.9571 102.413 19.9704 101.413 19.8638 100.48C19.7838 99.5467 19.6238 98.68 19.3838 97.88C19.1704 97.08 18.9304 96.3333 18.6637 95.64C18.4238 94.9467 18.1971 94.2933 17.9838 93.68C17.7971 93.0667 17.6904 92.5067 17.6638 92C17.6371 91.36 17.7304 90.7867 17.9438 90.28C18.1838 89.7467 18.5038 89.3067 18.9038 88.96C19.3304 88.6133 19.8104 88.3467 20.3438 88.16C20.9038 87.9733 21.4904 87.88 22.1038 87.88C22.3971 87.88 22.6638 87.9067 22.9038 87.96C23.1704 87.9867 23.4504 88.0267 23.7438 88.08C24.5438 88.2667 25.1971 88.5867 25.7038 89.04C26.2371 89.4667 26.6771 90.04 27.0238 90.76C27.3971 91.48 27.7171 92.36 27.9838 93.4C28.2771 94.44 28.5971 95.6667 28.9438 97.08C29.2638 98.4933 29.5838 99.6933 29.9038 100.68C30.2238 101.667 30.5171 102.48 30.7838 103.12C31.0771 103.76 31.3304 104.24 31.5438 104.56C31.7838 104.88 31.9838 105.067 32.1438 105.12C32.3038 105.2 32.4904 105.227 32.7038 105.2C32.9171 105.173 33.1038 105.053 33.2638 104.84C33.4504 104.6 33.5838 104.24 33.6638 103.76C33.7438 103.28 33.7438 102.6 33.6638 101.72C33.5838 100.84 33.4104 99.9333 33.1438 99C32.9038 98.04 32.6238 97.0933 32.3038 96.16C31.9838 95.2267 31.6504 94.32 31.3038 93.44C30.9571 92.56 30.6638 91.7467 30.4238 91C30.1838 90.28 30.1971 89.6533 30.4638 89.12C30.7304 88.56 31.1438 88.12 31.7038 87.8C32.2904 87.4533 32.9571 87.2267 33.7038 87.12C34.4771 86.9867 35.2371 86.9733 35.9838 87.08C37.5038 87.2933 38.4371 87.9467 38.7838 89.04C39.1304 90.1067 39.0104 91.68 38.4238 93.76C38.1304 94.8 37.9971 95.7867 38.0238 96.72C38.0504 97.6533 38.1571 98.6267 38.3438 99.64C38.5571 100.627 38.8104 101.68 39.1038 102.8C39.3971 103.92 39.6504 105.173 39.8638 106.56C40.1038 107.92 40.0371 109.133 39.6638 110.2C39.2904 111.24 38.7704 112.12 38.1038 112.84C37.4371 113.56 36.6904 114.107 35.8638 114.48C35.0371 114.827 34.2904 115 33.6238 115C32.2638 115 31.2371 114.467 30.5438 113.4C29.8504 112.333 29.4238 110.813 29.2638 108.84C29.2371 108.333 29.1304 107.64 28.9438 106.76C28.7838 105.88 28.5304 105.027 28.1838 104.2C27.8638 103.347 27.4504 102.613 26.9438 102C26.4638 101.387 25.8638 101.08 25.1438 101.08C24.7704 101.08 24.5038 101.253 24.3438 101.6C24.1838 101.947 24.1438 102.547 24.2238 103.4C24.2771 103.96 24.3971 104.507 24.5838 105.04C24.7704 105.573 24.9838 106.12 25.2238 106.68C25.4638 107.213 25.7171 107.787 25.9838 108.4C26.2504 108.987 26.4771 109.64 26.6638 110.36C27.0371 111.8 26.7971 112.933 25.9438 113.76C25.0904 114.587 23.7838 115 22.0238 115C21.1704 115 20.4638 114.88 19.9038 114.64C19.3438 114.4 18.9038 114.093 18.5838 113.72C18.2904 113.347 18.0904 112.933 17.9838 112.48C17.8771 112.027 17.8371 111.6 17.8638 111.2C17.9171 110.8 17.9971 110.347 18.1038 109.84C18.2104 109.333 18.3304 108.853 18.4638 108.4C18.6238 107.893 18.7971 107.373 18.9838 106.84ZM45.7516 87.04C47.1116 87.04 48.0716 87.36 48.6316 88C49.2182 88.6133 49.5782 89.48 49.7116 90.6C49.7649 91.16 49.7382 91.72 49.6316 92.28C49.5249 92.8133 49.3916 93.4133 49.2316 94.08C49.0716 94.72 48.8982 95.4667 48.7116 96.32C48.5249 97.1467 48.3782 98.12 48.2716 99.24C48.1649 100.36 48.1516 101.373 48.2316 102.28C48.3382 103.16 48.4849 104 48.6716 104.8C48.8582 105.6 49.0449 106.387 49.2316 107.16C49.4449 107.933 49.5916 108.773 49.6716 109.68C49.7516 110.587 49.6582 111.373 49.3916 112.04C49.1249 112.68 48.7382 113.227 48.2316 113.68C47.7516 114.107 47.1916 114.427 46.5516 114.64C45.9116 114.853 45.2716 114.96 44.6316 114.96C43.9649 114.96 43.3782 114.827 42.8716 114.56C42.3649 114.293 41.9382 113.96 41.5916 113.56C41.2716 113.133 41.0316 112.68 40.8716 112.2C40.7382 111.693 40.7116 111.2 40.7916 110.72C40.8716 110.24 40.9782 109.707 41.1116 109.12C41.2716 108.507 41.4316 107.787 41.5916 106.96C41.7782 106.133 41.9382 105.173 42.0716 104.08C42.2049 102.987 42.2849 101.707 42.3116 100.24C42.3649 98.7733 42.2849 97.56 42.0716 96.6C41.8849 95.64 41.6849 94.8 41.4716 94.08C41.2849 93.36 41.1516 92.7067 41.0716 92.12C40.9916 91.5067 41.0849 90.8267 41.3516 90.08C41.6182 89.3333 41.9916 88.76 42.4716 88.36C42.9782 87.96 43.4716 87.6533 43.9516 87.44C44.5116 87.2267 45.1116 87.0933 45.7516 87.04ZM60.32 95.04C59.3867 95.6 58.6133 96.36 58 97.32C57.4133 98.28 56.9867 99.2933 56.72 100.36C56.48 101.427 56.4 102.48 56.48 103.52C56.56 104.56 56.8 105.44 57.2 106.16C57.5733 106.853 58.0667 107.36 58.68 107.68C59.32 107.973 59.9467 108.12 60.56 108.12C61.3067 108.12 61.9467 107.96 62.48 107.64C63.0133 107.293 63.2533 106.88 63.2 106.4C63.1467 105.947 62.9867 105.653 62.72 105.52C62.48 105.387 62.2 105.293 61.88 105.24C61.56 105.16 61.24 105.053 60.92 104.92C60.6267 104.787 60.4 104.507 60.24 104.08C60.08 103.627 60.0533 103.147 60.16 102.64C60.2933 102.133 60.56 101.667 60.96 101.24C61.3867 100.787 61.9467 100.413 62.64 100.12C63.36 99.8267 64.24 99.68 65.28 99.68C66.32 99.68 67.3067 99.9733 68.24 100.56C69.1733 101.12 69.96 101.853 70.6 102.76C71.24 103.64 71.7067 104.627 72 105.72C72.2933 106.813 72.32 107.867 72.08 108.88C71.2 112.96 67.8933 115 62.16 115C60.7467 115 59.4 114.773 58.12 114.32C56.84 113.867 55.68 113.267 54.64 112.52C53.6267 111.747 52.76 110.867 52.04 109.88C51.3467 108.867 50.88 107.8 50.64 106.68C50.4 105.56 50.2533 104.36 50.2 103.08C50.1733 101.8 50.2667 100.507 50.48 99.2C50.6933 97.8667 51.04 96.5467 51.52 95.24C52.0267 93.9333 52.6933 92.7067 53.52 91.56C54.08 90.76 54.72 90.08 55.44 89.52C56.1867 88.9333 56.96 88.4533 57.76 88.08C58.5867 87.7067 59.4267 87.44 60.28 87.28C61.1333 87.0933 61.96 87 62.76 87C64.28 87 65.6 87.2667 66.72 87.8C67.6 88.2267 68.3067 88.76 68.84 89.4C69.3733 90.04 69.72 90.72 69.88 91.44C70.04 92.16 70.0267 92.88 69.84 93.6C69.6533 94.2933 69.28 94.92 68.72 95.48C68.1333 96.0667 67.52 96.4667 66.88 96.68C66.2667 96.8933 65.6667 97 65.08 97C63.5067 97 62.28 96.4267 61.4 95.28C61.2933 95.0933 61.1333 94.9867 60.92 94.96C60.7067 94.9067 60.5067 94.9333 60.32 95.04ZM77.1056 87.56C77.959 87.5333 78.6523 87.68 79.1856 88C79.7456 88.32 80.1456 88.7333 80.3856 89.24C80.6523 89.7467 80.799 90.32 80.8256 90.96C80.8523 91.6 80.7723 92.2267 80.5856 92.84C80.399 93.48 80.2523 94.0533 80.1456 94.56C80.0656 95.04 79.9856 95.4933 79.9056 95.92C79.8523 96.32 79.8123 96.7067 79.7856 97.08C79.759 97.4267 79.719 97.76 79.6656 98.08C79.5323 98.7467 79.5856 99.2 79.8256 99.44C80.0923 99.6533 80.519 99.8 81.1056 99.88C81.399 99.9067 81.759 99.9333 82.1856 99.96C82.639 99.96 83.079 99.9333 83.5056 99.88C83.9323 99.8267 84.319 99.7467 84.6656 99.64C85.0123 99.5333 85.239 99.4 85.3456 99.24C85.479 99.08 85.519 98.7867 85.4656 98.36C85.439 97.9067 85.359 97.3733 85.2256 96.76C85.0923 96.12 84.919 95.4267 84.7056 94.68C84.519 93.9333 84.3056 93.1733 84.0656 92.4C83.8523 91.6267 83.8123 90.9467 83.9456 90.36C84.079 89.7467 84.3323 89.2267 84.7056 88.8C85.079 88.3467 85.5456 87.9867 86.1056 87.72C86.6656 87.4533 87.2656 87.2667 87.9056 87.16C88.1456 87.1067 88.3856 87.0667 88.6256 87.04C88.8923 87.0133 89.159 87 89.4256 87C89.9323 87 90.4256 87.0533 90.9056 87.16C91.3856 87.2667 91.8123 87.44 92.1856 87.68C92.5856 87.92 92.919 88.24 93.1856 88.64C93.4523 89.0133 93.6256 89.4667 93.7056 90C93.8123 90.6667 93.799 91.3467 93.6656 92.04C93.559 92.7067 93.4123 93.4267 93.2256 94.2C93.0656 94.9733 92.879 95.8267 92.6656 96.76C92.479 97.6667 92.359 98.6933 92.3056 99.84C92.2523 100.987 92.319 102.053 92.5056 103.04C92.6923 104.027 92.9056 104.96 93.1456 105.84C93.3856 106.72 93.6123 107.587 93.8256 108.44C94.039 109.267 94.1456 110.107 94.1456 110.96C94.1456 111.813 93.999 112.507 93.7056 113.04C93.4123 113.573 93.0256 114 92.5456 114.32C92.0656 114.613 91.5323 114.813 90.9456 114.92C90.359 115.027 89.7723 115.08 89.1856 115.08C87.9856 115.08 86.9456 115.013 86.0656 114.88C85.1856 114.72 84.519 114.373 84.0656 113.84C83.6123 113.307 83.439 112.6 83.5456 111.72C83.6523 110.813 83.9056 109.76 84.3056 108.56C84.519 107.947 84.679 107.36 84.7856 106.8C84.919 106.213 85.0256 105.68 85.1056 105.2C85.2123 104.667 85.2923 104.147 85.3456 103.64C85.1856 103.56 84.999 103.467 84.7856 103.36C84.5723 103.307 84.319 103.253 84.0256 103.2C83.7323 103.12 83.359 103.053 82.9056 103C82.479 102.947 82.0656 102.947 81.6656 103C81.2656 103.027 80.919 103.067 80.6256 103.12C80.2523 103.2 79.9056 103.293 79.5856 103.4L79.7456 104.28C79.7723 104.493 79.8523 104.813 79.9856 105.24C80.1456 105.667 80.3056 106.173 80.4656 106.76C80.6256 107.347 80.7723 107.987 80.9056 108.68C81.039 109.373 81.0923 110.093 81.0656 110.84C81.039 111.587 80.8523 112.227 80.5056 112.76C80.159 113.293 79.7323 113.733 79.2256 114.08C78.7456 114.427 78.239 114.68 77.7056 114.84C77.1723 115 76.719 115.08 76.3456 115.08C75.9723 115.08 75.5723 115.013 75.1456 114.88C74.719 114.72 74.319 114.493 73.9456 114.2C73.599 113.907 73.3056 113.52 73.0656 113.04C72.8256 112.56 72.7056 112 72.7056 111.36C72.7056 110.72 72.759 110.107 72.8656 109.52C72.9723 108.933 73.1056 108.293 73.2656 107.6C73.4256 106.88 73.5856 106.053 73.7456 105.12C73.9323 104.187 74.0923 103.053 74.2256 101.72C74.359 100.387 74.3323 99.1867 74.1456 98.12C73.9856 97.0267 73.7856 96.04 73.5456 95.16C73.3056 94.2533 73.1056 93.4267 72.9456 92.68C72.8123 91.9333 72.839 91.2267 73.0256 90.56C73.239 89.8667 73.559 89.3333 73.9856 88.96C74.439 88.56 74.8923 88.2533 75.3456 88.04C75.879 87.8 76.4656 87.64 77.1056 87.56ZM102.211 95.2C101.731 94.96 101.345 94.84 101.051 94.84C100.678 94.84 100.385 94.9733 100.171 95.24C99.9579 95.48 99.6913 95.7467 99.3713 96.04C98.8913 96.44 98.2779 96.64 97.5313 96.64C97.0779 96.64 96.6246 96.56 96.1713 96.4C95.7446 96.24 95.3846 95.9867 95.0913 95.64C94.8246 95.32 94.6113 94.9067 94.4512 94.4C94.2646 93.8667 94.1979 93.32 94.2512 92.76C94.2779 92.1733 94.4112 91.6133 94.6513 91.08C94.9179 90.52 95.3313 90.0667 95.8913 89.72C96.4513 89.3467 97.3313 88.9867 98.5313 88.64C99.7579 88.2667 101.118 87.9467 102.611 87.68C104.131 87.4133 105.705 87.2133 107.331 87.08C108.958 86.9467 110.451 86.9467 111.811 87.08C113.171 87.1867 114.265 87.4 115.091 87.72C115.945 88.0133 116.598 88.3733 117.051 88.8C117.505 89.2267 117.785 89.6933 117.891 90.2C118.025 90.7067 118.065 91.24 118.011 91.8C117.958 92.3333 117.785 92.8267 117.491 93.28C117.225 93.7333 116.905 94.1333 116.531 94.48C116.158 94.8 115.745 95.0667 115.291 95.28C114.865 95.4667 114.451 95.6 114.051 95.68C113.651 95.7333 113.278 95.7067 112.931 95.6C112.585 95.4933 112.251 95.36 111.931 95.2C111.611 95.04 111.305 94.8933 111.011 94.76C110.745 94.6267 110.478 94.5733 110.211 94.6C109.678 94.6267 109.331 94.9733 109.171 95.64C109.011 96.3067 108.811 97.28 108.571 98.56C108.465 99.1733 108.411 99.8133 108.411 100.48C108.411 101.147 108.465 101.88 108.571 102.68C108.705 103.48 108.878 104.373 109.091 105.36C109.331 106.347 109.611 107.467 109.931 108.72C110.278 109.973 110.331 111.013 110.091 111.84C109.878 112.64 109.505 113.28 108.971 113.76C108.465 114.213 107.865 114.533 107.171 114.72C106.478 114.907 105.838 115 105.251 115C104.051 115 103.105 114.707 102.411 114.12C101.745 113.533 101.371 112.747 101.291 111.76C101.238 111.28 101.251 110.827 101.331 110.4C101.411 109.947 101.531 109.427 101.691 108.84C101.851 108.253 102.025 107.56 102.211 106.76C102.425 105.96 102.625 104.96 102.811 103.76C102.998 102.533 103.065 101.413 103.011 100.4C102.985 99.36 102.905 98.4533 102.771 97.68C102.638 96.7733 102.451 95.9467 102.211 95.2Z" fill="white"/>
<path d="M158 95C157.083 103.951 153.875 109 147 109C153.875 109 157.083 114.049 158 123C158.917 114.049 162.125 109 169 109C162.125 109 158.917 103.951 158 95Z" fill="#FEFAEB"/>
<path d="M68 15C67.3333 22.0328 65 26 60 26C65 26 67.3333 29.9672 68 37C68.6667 29.9672 71 26 76 26C71 26 68.6667 22.0328 68 15Z" fill="#FEFAEB"/>
<path d="M270 9C269.667 12.5164 268.5 14.5 266 14.5C268.5 14.5 269.667 16.4836 270 20C270.333 16.4836 271.5 14.5 274 14.5C271.5 14.5 270.333 12.5164 270 9Z" fill="#FEFAEB"/>
<path d="M160 26C159.667 29.5164 158.5 31.5 156 31.5C158.5 31.5 159.667 33.4836 160 37C160.333 33.4836 161.5 31.5 164 31.5C161.5 31.5 160.333 29.5164 160 26Z" fill="#FEFAEB"/>
<path d="M130 66C129.417 71.7541 127.375 75 123 75C127.375 75 129.417 78.2459 130 84C130.583 78.2459 132.625 75 137 75C132.625 75 130.583 71.7541 130 66Z" fill="#FEFAEB"/>
<path d="M111 37C110.667 40.1967 109.5 42 107 42C109.5 42 110.667 43.8033 111 47C111.333 43.8033 112.5 42 115 42C112.5 42 111.333 40.1967 111 37Z" fill="#FEFAEB"/>
</g>
<defs>
<clipPath id="clip0_6_2235">
<rect width="327" height="136" rx="24" fill="white"/>
</clipPath>
</defs>
</svg>
