<svg width="327" height="136" viewBox="0 0 327 136" fill="none" xmlns="http://www.w3.org/2000/svg">
<g clip-path="url(#clip0_6_2252)">
<rect width="327" height="136" rx="24" fill="#074506"/>
<path d="M52.5562 40.7427C42.715 36.6711 32.1887 18.0346 27.57 3.65544C27.2554 2.67588 25.7446 2.67588 25.43 3.65544C20.8113 18.0345 10.285 36.6709 0.443848 40.7425C-0.496475 41.1315 -0.713562 42.6707 0.250252 42.9972C3.91008 44.237 9.05884 45.0265 13.8937 43.2745C14.8613 42.9238 15.9613 43.9967 15.424 44.8746C9.10439 55.2002 -4.53842 70.5674 -14.4327 74.7826C-15.1417 75.0847 -15.3324 76.0251 -14.7083 76.4771C-8.3735 81.065 3.49055 82.8346 10.1452 81.3867C11.0808 81.1831 12.005 82.1927 11.466 82.9841C5.1631 92.2374 -12.5703 103.807 -24.3028 107.047C-25.1324 107.276 -25.3591 108.351 -24.6252 108.801C-18.2296 112.718 -6.26016 116.313 1.83736 114.282C2.86478 114.024 3.86153 115.211 3.12625 115.974C-5.52873 124.949 -26.9341 135.661 -33.7092 138.811C-34.3368 139.103 -34.487 139.903 -33.9022 140.273C-25.4105 145.649 9.62957 146 26.8289 146C44.0258 146 78.4642 145.649 86.9034 140.276C87.4872 139.904 87.3362 139.111 86.6966 138.846C79.9187 136.047 59.3116 128.212 49.608 120.46C48.8479 119.852 49.4193 118.596 50.3918 118.565C59.5888 118.275 75.688 112.221 82.9172 107.723C83.6479 107.268 83.4186 106.195 82.5909 105.96C70.9807 102.654 54.5365 90.6566 46.5032 82.5252C45.8359 81.8498 46.4518 80.7184 47.3981 80.7935C54.8848 81.3879 64.7808 79.5167 70.2657 75.8105C70.9134 75.3729 70.7326 74.417 70.0105 74.1179C59.9057 69.9331 44.3381 55.0562 37.6353 44.8399C37.0707 43.9793 38.1387 42.924 39.1063 43.2746C43.9412 45.0267 49.0899 44.2372 52.7498 42.9973C53.7136 42.6708 53.4965 41.1317 52.5562 40.7427Z" fill="#022E01"/>
<path d="M138.264 70.6703C130.124 66.8483 121.537 51.661 117.587 39.6629C117.265 38.685 115.735 38.685 115.413 39.6629C111.463 51.661 102.876 66.8482 94.7364 70.6702C93.8159 71.1024 93.6194 72.6718 94.59 72.9751C97.5345 73.8953 101.455 74.4231 105.21 73.23C106.191 72.9183 107.301 74.0148 106.756 74.8879C101.294 83.6366 90.0652 96.2457 81.7874 99.9259C81.0842 100.239 80.8921 101.178 81.5224 101.62C86.8412 105.347 96.436 106.831 102.113 105.767C103.054 105.59 103.973 106.624 103.418 107.405C97.8918 115.183 83.3056 124.716 73.4418 127.562C72.6158 127.8 72.3919 128.877 73.1305 129.317C78.4883 132.508 88.0579 135.379 94.8322 133.984C95.8697 133.771 96.8559 134.996 96.1038 135.742C88.5299 143.254 71.1287 152.022 65.2772 154.763C64.6514 155.056 64.5207 155.852 65.1143 156.206C72.6607 160.704 102.215 161 116.781 161C131.344 161 160.391 160.704 167.887 156.208C168.48 155.853 168.344 155.064 167.706 154.8C161.826 152.376 144.914 145.89 136.581 139.413C135.813 138.816 136.377 137.544 137.348 137.492C145.147 137.073 158.213 132.156 164.388 128.397C165.122 127.95 164.898 126.875 164.074 126.629C154.324 123.719 140.757 113.833 133.871 106.953C133.2 106.282 133.812 105.142 134.759 105.203C140.999 105.605 149.03 104.059 153.648 101.048C154.302 100.622 154.122 99.6649 153.405 99.3563C144.925 95.7058 132.131 83.4938 126.31 74.848C125.735 73.9942 126.809 72.9185 127.79 73.2302C131.545 74.4233 135.465 73.8955 138.41 72.9753C139.381 72.6719 139.184 71.1025 138.264 70.6703Z" fill="#022E01"/>
<path d="M324.316 29.0967C312.203 24.756 299.056 1.32841 293.556 -16.3248C293.249 -17.3078 291.751 -17.3078 291.444 -16.3248C285.944 1.32839 272.797 24.7558 260.684 29.0965C259.727 29.4396 259.491 30.9451 260.445 31.2961C265.014 32.9763 271.849 34.1707 278.131 31.6009C279.084 31.2112 280.181 32.2537 279.655 33.1381C272.223 45.6184 255.321 64.8287 243.265 69.7689C242.552 70.0607 242.356 70.997 242.971 71.4604C250.646 77.2485 265.595 79.4127 273.52 77.4198C274.449 77.1862 275.376 78.1772 274.855 78.981C267.551 90.2614 245.578 104.654 231.359 108.425C230.529 108.645 230.301 109.719 231.027 110.18C238.781 115.097 254.008 119.706 263.836 116.759C264.851 116.454 265.855 117.614 265.141 118.396C255.094 129.395 228.206 142.83 220.275 146.507C219.648 146.798 219.505 147.594 220.077 147.982C229.796 154.572 272.175 155 292.893 155C313.609 155 355.26 154.573 364.924 147.984C365.495 147.594 365.345 146.802 364.707 146.536C356.787 143.235 331.154 133.521 319.642 124C318.893 123.38 319.468 122.136 320.441 122.128C331.469 122.041 351.685 114.402 360.292 108.888C361.016 108.424 360.789 107.351 359.96 107.125C345.871 103.287 325.552 88.3581 316.01 78.5112C315.349 77.8298 315.967 76.7027 316.912 76.7924C326.053 77.6603 338.469 75.3387 345.096 70.6681C345.734 70.2184 345.552 69.263 344.827 68.9731C332.552 64.0636 313.234 45.4721 305.397 33.1077C304.846 32.2384 305.916 31.2114 306.869 31.6011C313.151 34.1709 319.986 32.9765 324.555 31.2963C325.509 30.9453 325.273 29.4398 324.316 29.0967Z" fill="#022E01"/>
<path d="M93.5295 56.3803C85.4829 52.5719 77.0014 37.5523 73.0879 25.669C72.7657 24.6906 71.2343 24.6906 70.9121 25.669C66.9986 37.5523 58.5171 52.5718 50.4705 56.3802C49.5516 56.815 49.3557 58.3856 50.3262 58.6879C53.2306 59.5927 57.0862 60.1088 60.783 58.9431C61.7647 58.6335 62.8591 59.7231 62.298 60.5861C57.2731 68.3145 47.3709 78.4848 39.4381 82.7709C38.5267 83.2633 38.6446 85.0351 39.6384 85.3273C44.9711 86.8952 52.6643 89.4499 57.514 89.2138C58.4705 89.1672 59.4405 90.3201 58.9002 91.1107C53.4556 99.0784 39.1214 109.799 29.3635 112.805C28.5423 113.058 28.3196 114.139 29.0578 114.579C34.3568 117.735 43.7977 120.571 50.4992 119.209C51.5372 118.998 52.5232 120.226 51.7707 120.971C44.2587 128.413 27.0732 137.087 21.2748 139.808C20.6497 140.102 20.5198 140.897 21.1132 141.25C28.6032 145.707 57.8573 146 72.2781 146C86.6963 146 115.448 145.707 122.888 141.253C123.48 140.898 123.346 140.109 122.708 139.846C116.88 137.439 100.166 131.017 91.9096 124.601C91.1419 124.005 91.7057 122.732 92.6765 122.679C100.399 122.254 113.302 117.39 119.417 113.667C120.151 113.22 119.927 112.145 119.104 111.899C109.456 109.008 96.044 99.2226 89.2224 92.4016C88.5516 91.7308 89.163 90.5904 90.1097 90.6506C96.2815 91.0436 104.213 89.5132 108.783 86.535C109.436 86.1091 109.256 85.153 108.54 84.8437C100.15 81.2193 87.5065 69.1352 81.7346 60.5646C81.1596 59.7108 82.2353 58.6336 83.217 58.9432C86.9138 60.109 90.7694 59.5928 93.6738 58.6881C94.6444 58.3857 94.4484 56.8152 93.5295 56.3803Z" fill="#013300"/>
<path d="M222.066 76.6297C219.167 93.3712 248.158 103.368 259.111 85.9038C269.311 103.729 291.001 99.1525 294.652 83.2541C314.623 78.5568 311.295 49.53 294.652 47.3621C306.785 34.836 285.954 15.9265 278.868 21.7077C273.714 5.5684 246.011 9.42257 246.011 21.7077C227.757 14.6016 219.919 31.5841 225.502 43.267C210.147 45.7963 210.147 73.3777 222.066 76.6297Z" fill="#0D6A0C"/>
<path d="M249.472 135.549C255.7 127.987 259.233 59.2505 260.037 32.1289C261.334 61.5981 261.89 124.614 267.08 135.549H249.472Z" fill="#432F07"/>
<path d="M243.356 69.3823L257.627 81.8002V79.9468L244.839 68.641L241.317 67.7143L236.313 57.7058L229.085 50.4775L235.757 58.0765L240.205 67.7143L216.296 64.1928L243.356 69.3823Z" fill="#432F07"/>
<path d="M279.868 66.0459L261.149 76.0544V73.8303L280.795 64.5632L307.855 62.3391L279.868 66.0459Z" fill="#432F07"/>
<path d="M248.916 49.7359L258.925 60.3004V58.6323L242.244 41.0249L242.8 28.051L241.317 40.2835L231.865 29.9044L247.619 48.8092L234.645 49.7359H248.916Z" fill="#432F07"/>
<path d="M274.864 46.5854L260.593 53.6283V52.3309L273.937 45.6586L282.834 29.3486L275.42 45.6586L284.872 48.8094L274.864 46.5854Z" fill="#432F07"/>
<path d="M172.176 83.0786C169.743 97.1287 194.073 105.518 203.265 90.8617C211.825 105.822 230.028 101.98 233.092 88.638C249.853 84.6959 247.059 60.3357 233.092 58.5162C243.275 48.004 225.793 32.1345 219.845 36.9863C215.52 23.4416 192.271 26.6762 192.271 36.9863C176.952 31.0226 170.373 45.2748 175.059 55.0796C162.173 57.2022 162.173 80.3495 172.176 83.0786Z" fill="#178216"/>
<path d="M195.642 138.281C200.869 131.935 203.212 61.6495 203.886 38.8882C204.975 63.6197 206.064 129.104 210.419 138.281H195.642Z" fill="#432F07"/>
<path d="M235.773 72.7966L221.307 77.7741L216.952 80.3457L227.684 91.462L216.174 80.8049L204.975 87.4178V85.0846L220.529 76.6852L235.773 72.7966Z" fill="#432F07"/>
<path d="M176.044 62.842L188.176 72.4858L192.531 75.0575L179.155 88.3513L187.175 81.1963L190.043 91.3067L187.554 80.8452L193.309 75.5167L204.508 82.1295V79.7964L188.954 71.397L176.044 62.842Z" fill="#432F07"/>
<path d="M217.107 60.3532L204.508 72.3301L204.353 70.6191L213.153 62.8419L213.841 52.7315L211.975 44.021L214.308 52.887L213.681 62.3752L217.73 58.7977L229.707 48.5318L220.374 57.2884L230.795 61.9086L220.063 57.5802L217.107 60.3532Z" fill="#432F07"/>
<path d="M188.021 53.8202L181.954 40.1323L188.332 53.5092L198.131 61.3086L197.509 46.9763L199.997 35.7771L197.82 46.9763L198.494 61.5975L203.575 65.6416V66.2638L188.487 54.1973L180.866 53.1981L188.021 53.8202Z" fill="#432F07"/>
<path d="M183.379 141.234C182.459 145.969 187.753 148.788 192.586 145.067C193.852 150.479 200.987 150.14 202.369 145.067C205.821 148.562 211.115 143.489 209.964 140.445C215.143 140.445 217.56 134.582 213.072 132.102C219.516 127.93 213.762 121.955 210.655 121.955C213.762 118.122 206.972 112.71 203.404 115.867C204.325 110.907 196.039 108.652 192.586 114.401C190.4 109.103 181.538 112.034 184.185 117.671C178.431 115.078 174.057 121.391 178.891 124.999C172.446 125.27 172.906 134.582 177.165 134.582C174.172 139.768 178.891 144.278 183.379 141.234Z" fill="#1C991A"/>
<path d="M291.952 132.168C290.681 138.773 297.992 142.704 304.667 137.515C306.415 145.062 316.268 144.591 318.176 137.515C322.943 142.389 330.254 135.313 328.665 131.068C335.817 131.068 339.154 122.891 332.956 119.432C341.856 113.614 333.91 105.28 329.618 105.28C333.91 99.9332 324.533 92.3855 319.606 96.7884C320.877 89.8696 309.434 86.7247 304.667 94.7442C301.647 87.3537 289.409 91.442 293.065 99.3043C285.118 95.6877 279.079 104.493 285.754 109.525C276.854 109.903 277.49 122.891 283.37 122.891C279.238 130.124 285.754 136.414 291.952 132.168Z" fill="#1C991A"/>
<path d="M207.952 150.168C206.681 156.773 213.992 160.704 220.667 155.515C222.415 163.062 232.268 162.591 234.176 155.515C238.943 160.389 246.254 153.313 244.665 149.068C251.817 149.068 255.154 140.891 248.956 137.432C257.856 131.614 249.91 123.28 245.618 123.28C249.91 117.933 240.533 110.386 235.606 114.788C236.877 107.87 225.434 104.725 220.667 112.744C217.647 105.354 205.409 109.442 209.065 117.304C201.118 113.688 195.079 122.493 201.754 127.525C192.854 127.903 193.49 140.891 199.37 140.891C195.238 148.124 201.754 154.414 207.952 150.168Z" fill="#1C991A"/>
<path d="M280.643 108.554C278.611 101.664 269.817 101.463 266.078 109.62C260.746 103.294 251.713 108.506 253.378 116.151C246.513 113.825 243.098 124.082 246.667 127.348C239.943 130.806 240.801 140.189 248.318 140.479C242.794 150.31 254.337 154.388 258.371 152.313C256.949 159.468 269.452 162.106 271.933 155.541C274.118 162.73 286.413 160.186 286.976 150.261C293.426 155.823 302.933 146.023 295.655 140.319C304.893 139.914 306.268 128.627 297.534 127.073C305.717 122.412 298.773 110.377 293.244 113.22C293.595 104.35 284.395 101.523 280.643 108.554Z" fill="#10790F"/>
<path d="M168.241 109.025C166.397 102.771 158.416 102.589 155.022 109.993C150.183 104.251 141.984 108.981 143.495 115.92C137.265 113.808 134.165 123.119 137.404 126.083C131.302 129.221 132.08 137.737 138.903 138.001C133.889 146.924 144.366 150.624 148.027 148.741C146.737 155.235 158.085 157.63 160.336 151.671C162.32 158.196 173.478 155.887 173.99 146.879C179.844 151.927 188.473 143.032 181.867 137.855C190.251 137.488 191.499 127.243 183.572 125.833C190.999 121.602 184.696 110.68 179.679 113.26C179.997 105.209 171.647 102.643 168.241 109.025Z" fill="#10790F"/>
<circle cx="309" cy="105" r="4" fill="#FF4F37"/>
<circle cx="316.5" cy="116.5" r="2.5" fill="#FF4F37"/>
<circle cx="290" cy="125" r="3" fill="#FF4F37"/>
<circle cx="278.5" cy="117.5" r="1.5" fill="#FF4F37"/>
<circle cx="260" cy="127" r="3" fill="#FF4F37"/>
<circle cx="235.5" cy="126.5" r="2.5" fill="#FF4F37"/>
<circle cx="218" cy="120" r="3" fill="#FF4F37"/>
<circle cx="195.5" cy="123.5" r="2.5" fill="#FF4F37"/>
<circle cx="169" cy="127" r="2" fill="#FF4F37"/>
<circle cx="167" cy="116" r="3" fill="#FF4F37"/>
<circle cx="152" cy="123" r="2" fill="#FF4F37"/>
<path d="M33.7913 90.04C34.2446 90.36 34.5913 90.7867 34.8313 91.32C35.0979 91.8267 35.2446 92.36 35.2713 92.92C35.3246 93.4533 35.2579 93.96 35.0713 94.44C34.9113 94.8933 34.6179 95.2267 34.1913 95.44C33.6846 95.68 33.0579 95.8 32.3113 95.8C31.5113 95.8 30.6713 95.72 29.7913 95.56C28.9113 95.3733 28.1246 95.2133 27.4313 95.08C26.9246 95 26.4046 94.9867 25.8713 95.04C25.3379 95.0933 24.8313 95.2267 24.3513 95.44C23.8713 95.6267 23.4313 95.8933 23.0313 96.24C22.6579 96.56 22.3646 96.9467 22.1513 97.4C21.9379 97.8533 21.8313 98.2667 21.8313 98.64C21.8313 99.0133 21.8846 99.3333 21.9913 99.6C22.0713 99.92 22.2179 100.2 22.4313 100.44L22.7113 100.64C23.1379 100.587 23.5646 100.56 23.9913 100.56C24.4179 100.533 24.7913 100.547 25.1113 100.6C25.8313 100.733 26.2846 100.987 26.4713 101.36C26.6579 101.733 26.7646 102.187 26.7913 102.72C26.7913 102.96 26.7379 103.227 26.6313 103.52C26.5513 103.813 26.4046 104.093 26.1913 104.36C26.0046 104.6 25.7513 104.813 25.4313 105C25.1379 105.16 24.8046 105.253 24.4313 105.28C24.1913 105.28 23.9379 105.28 23.6713 105.28C23.4046 105.28 23.1379 105.267 22.8713 105.24L22.6713 105.48C22.6179 105.747 22.5913 106.04 22.5913 106.36C22.5913 106.653 22.6179 106.973 22.6713 107.32C22.7246 107.667 22.8179 108.027 22.9513 108.4C23.0846 108.773 23.2713 109.12 23.5113 109.44C23.7513 109.733 23.9913 110.04 24.2313 110.36C24.4713 110.68 24.6713 111.04 24.8313 111.44C25.0179 111.84 25.1113 112.32 25.1113 112.88C25.1113 113.44 25.0313 113.973 24.8713 114.48C24.7379 114.96 24.4846 115.387 24.1113 115.76C23.7646 116.133 23.2846 116.44 22.6713 116.68C22.0579 116.893 21.2713 117 20.3113 117C19.3513 117 18.5513 116.827 17.9113 116.48C17.2713 116.133 16.7646 115.72 16.3913 115.24C16.0179 114.733 15.7646 114.227 15.6313 113.72C15.5246 113.187 15.4846 112.747 15.5113 112.4C15.5646 112.027 15.6313 111.613 15.7113 111.16C15.7913 110.707 15.8446 110.107 15.8713 109.36C15.9246 108.613 15.9513 107.707 15.9513 106.64C15.9513 105.547 15.8846 104.2 15.7513 102.6C15.6179 101 15.4713 99.6933 15.3113 98.68C15.1779 97.6667 15.0446 96.8533 14.9113 96.24C14.7246 95.5467 14.5513 95.0133 14.3913 94.64C14.3113 94.24 14.2713 93.8267 14.2713 93.4C14.2713 93.0267 14.3246 92.6267 14.4313 92.2C14.5379 91.7733 14.7379 91.3467 15.0313 90.92C15.3246 90.4933 15.6979 90.16 16.1513 89.92C16.6046 89.6533 17.0846 89.4667 17.5913 89.36C18.0979 89.2267 18.6046 89.1467 19.1113 89.12C19.6446 89.0933 20.1513 89.1067 20.6313 89.16C21.2713 89.2133 21.9913 89.28 22.7913 89.36C23.5913 89.4133 24.4179 89.44 25.2713 89.44C25.6979 89.44 26.1246 89.4267 26.5513 89.4C26.9779 89.3733 27.4179 89.3333 27.8713 89.28C28.3779 89.2 28.8446 89.1333 29.2713 89.08C29.7246 89.0267 30.1513 89 30.5513 89C31.1379 89 31.6846 89.08 32.1913 89.24C32.7246 89.4 33.2579 89.6667 33.7913 90.04ZM44.7419 89C46.1552 89 47.4752 89.3733 48.7019 90.12C49.9285 90.84 50.9952 91.8267 51.9019 93.08C52.8352 94.3333 53.5685 95.8133 54.1019 97.52C54.6352 99.2267 54.9019 101.04 54.9019 102.96C54.9019 104.88 54.6352 106.693 54.1019 108.4C53.5685 110.107 52.8352 111.587 51.9019 112.84C50.9952 114.093 49.9285 115.093 48.7019 115.84C47.4752 116.56 46.1552 116.92 44.7419 116.92C43.3552 116.92 42.0352 116.56 40.7819 115.84C39.5552 115.093 38.4885 114.093 37.5819 112.84C36.6752 111.587 35.9552 110.107 35.4219 108.4C34.8885 106.693 34.6219 104.88 34.6219 102.96C34.6219 101.04 34.8885 99.2267 35.4219 97.52C35.9552 95.8133 36.6752 94.3333 37.5819 93.08C38.4885 91.8267 39.5552 90.84 40.7819 90.12C42.0352 89.3733 43.3552 89 44.7419 89ZM44.2619 106.52C44.6619 106.52 45.0352 106.373 45.3819 106.08C45.7285 105.787 46.0352 105.4 46.3019 104.92C46.5685 104.413 46.7685 103.827 46.9019 103.16C47.0619 102.467 47.1419 101.747 47.1419 101C47.1419 100.227 47.0619 99.5067 46.9019 98.84C46.7685 98.1467 46.5685 97.56 46.3019 97.08C46.0352 96.5733 45.7285 96.1733 45.3819 95.88C45.0352 95.5867 44.6619 95.44 44.2619 95.44C43.8619 95.44 43.4752 95.5867 43.1019 95.88C42.7552 96.1733 42.4485 96.5733 42.1819 97.08C41.9419 97.56 41.7419 98.1467 41.5819 98.84C41.4219 99.5067 41.3419 100.227 41.3419 101C41.3419 101.747 41.4219 102.467 41.5819 103.16C41.7419 103.827 41.9419 104.413 42.1819 104.92C42.4485 105.4 42.7552 105.787 43.1019 106.08C43.4752 106.373 43.8619 106.52 44.2619 106.52ZM70.2144 108.44C70.561 108.92 70.961 109.36 71.4144 109.76C71.8944 110.16 72.3344 110.56 72.7344 110.96C73.161 111.333 73.5077 111.72 73.7744 112.12C74.041 112.493 74.1477 112.92 74.0944 113.4C74.041 113.88 73.881 114.347 73.6144 114.8C73.3477 115.227 73.001 115.6 72.5744 115.92C72.1477 116.24 71.6544 116.507 71.0944 116.72C70.561 116.907 69.9877 117 69.3744 117C68.1477 117 67.2677 116.827 66.7344 116.48C66.2277 116.107 65.801 115.48 65.4544 114.6C65.2944 114.147 65.2277 113.707 65.2544 113.28C65.281 112.853 65.3344 112.427 65.4144 112C65.521 111.547 65.6144 111.107 65.6944 110.68C65.801 110.227 65.8277 109.76 65.7744 109.28C65.641 108.347 65.3077 107.613 64.7744 107.08C64.241 106.52 63.6677 106.253 63.0544 106.28C62.6544 106.307 62.3344 106.493 62.0944 106.84C61.8544 107.16 61.7744 107.52 61.8544 107.92C61.961 108.32 62.0544 108.747 62.1344 109.2C62.241 109.653 62.361 110.133 62.4944 110.64C62.6277 111.28 62.7077 111.973 62.7344 112.72C62.7877 113.44 62.6944 114.12 62.4544 114.76C62.2144 115.4 61.801 115.933 61.2144 116.36C60.6277 116.787 59.7877 117 58.6944 117C57.601 117 56.7877 116.787 56.2544 116.36C55.7477 115.933 55.4277 115.36 55.2944 114.64C55.161 113.92 55.1744 113.107 55.3344 112.2C55.521 111.267 55.7477 110.307 56.0144 109.32C56.3077 108.333 56.4944 107.267 56.5744 106.12C56.6544 104.973 56.6677 103.853 56.6144 102.76C56.5877 101.667 56.4944 100.653 56.3344 99.72C56.201 98.76 56.041 97.9733 55.8544 97.36C55.6944 96.7467 55.5477 96.1867 55.4144 95.68C55.281 95.1733 55.201 94.7067 55.1744 94.28C55.1477 93.8267 55.201 93.3867 55.3344 92.96C55.4677 92.5333 55.7077 92.08 56.0544 91.6C56.4277 91.12 56.7877 90.7467 57.1344 90.48C57.5077 90.1867 57.8544 89.9733 58.1744 89.84C58.4944 89.68 58.7744 89.5733 59.0144 89.52C59.281 89.4667 59.481 89.4267 59.6144 89.4C59.9077 89.3467 60.241 89.3733 60.6144 89.48C61.0144 89.5867 61.4144 89.7867 61.8144 90.08C62.081 90.2667 62.3744 90.36 62.6944 90.36C62.9877 90.36 63.3344 90.28 63.7344 90.12C64.161 89.96 64.7344 89.72 65.4544 89.4C66.121 89.1067 66.921 88.96 67.8544 88.96C68.441 88.96 69.0544 89.0267 69.6944 89.16C70.3344 89.2933 70.9477 89.5067 71.5344 89.8C72.121 90.0933 72.6677 90.4667 73.1744 90.92C73.681 91.3467 74.0944 91.88 74.4144 92.52C74.841 93.4 75.0544 94.3733 75.0544 95.44C75.0544 96.5067 74.841 97.5733 74.4144 98.64C74.0144 99.7067 73.4144 100.72 72.6144 101.68C71.8144 102.64 70.841 103.467 69.6944 104.16C69.5877 104.213 69.5344 104.24 69.5344 104.24C69.4544 104.8 69.4277 105.48 69.4544 106.28C69.5077 107.08 69.761 107.8 70.2144 108.44ZM61.8544 100.16C61.801 100.56 61.9744 100.827 62.3744 100.96C62.721 101.067 63.1077 101.12 63.5344 101.12C64.0677 101.12 64.5877 101.027 65.0944 100.84C65.601 100.627 66.041 100.373 66.4144 100.08C66.8144 99.76 67.1344 99.4133 67.3744 99.04C67.6144 98.64 67.7344 98.2533 67.7344 97.88C67.7877 97.16 67.6144 96.5333 67.2144 96C66.841 95.4667 66.3077 95.2 65.6144 95.2C65.001 95.2 64.4677 95.3733 64.0144 95.72C63.5877 96.04 63.2277 96.4533 62.9344 96.96C62.641 97.44 62.401 97.9733 62.2144 98.56C62.0544 99.12 61.9344 99.6533 61.8544 100.16ZM94.4441 89.84C94.9774 90.1867 95.3907 90.64 95.6841 91.2C95.9774 91.7333 96.1641 92.2667 96.2441 92.8C96.3241 93.3333 96.3107 93.8267 96.2041 94.28C96.0974 94.7333 95.9107 95.0533 95.6441 95.24C95.4041 95.4 95.1107 95.52 94.7641 95.6C94.4174 95.6533 94.0307 95.68 93.6041 95.68C93.0707 95.68 92.4707 95.64 91.8041 95.56C91.1374 95.4533 90.4174 95.3333 89.6441 95.2C88.8974 95.04 88.1374 94.96 87.3641 94.96C86.4307 94.96 85.5907 95.12 84.8441 95.44C84.0974 95.76 83.5507 96.2667 83.2041 96.96C82.9907 97.44 82.8841 97.8933 82.8841 98.32C82.8841 98.7467 82.9374 99.12 83.0441 99.44C83.1507 99.8133 83.3107 100.16 83.5241 100.48L83.7641 100.64C84.5374 100.587 85.2441 100.587 85.8841 100.64C86.4974 100.693 86.9507 100.907 87.2441 101.28C87.5641 101.653 87.6574 102.32 87.5241 103.28C87.4441 103.76 87.3241 104.133 87.1641 104.4C87.0041 104.64 86.8041 104.827 86.5641 104.96C86.3241 105.067 86.0441 105.133 85.7241 105.16C85.4041 105.187 85.0441 105.213 84.6441 105.24H84.0441L83.8041 105.44C83.7241 105.573 83.6707 105.787 83.6441 106.08C83.6174 106.347 83.6307 106.64 83.6841 106.96C83.7374 107.28 83.8441 107.6 84.0041 107.92C84.1641 108.213 84.3774 108.44 84.6441 108.6C84.9641 108.76 85.3107 108.84 85.6841 108.84C86.2174 108.84 86.8041 108.707 87.4441 108.44C88.1107 108.147 88.7774 107.773 89.4441 107.32C90.1374 106.867 90.8174 106.64 91.4841 106.64C92.0174 106.64 92.4974 106.76 92.9241 107C93.3774 107.24 93.7507 107.56 94.0441 107.96C94.2841 108.28 94.4974 108.707 94.6841 109.24C94.8974 109.747 95.0041 110.293 95.0041 110.88C95.0307 111.44 94.9374 112.027 94.7241 112.64C94.5107 113.227 94.1241 113.76 93.5641 114.24C93.0041 114.72 92.2574 115.147 91.3241 115.52C90.4174 115.867 89.4174 116.147 88.3241 116.36C87.2574 116.573 86.1507 116.733 85.0041 116.84C83.8574 116.947 82.7641 117 81.7241 117C80.6841 117 79.8174 116.813 79.1241 116.44C78.4307 116.067 77.8841 115.6 77.4841 115.04C77.0841 114.48 76.8307 113.88 76.7241 113.24C76.6174 112.6 76.6307 112.013 76.7641 111.48C76.8974 110.947 76.9907 110.467 77.0441 110.04C77.0974 109.613 77.1241 109.107 77.1241 108.52C77.1241 107.933 77.1107 107.213 77.0841 106.36C77.0841 105.48 77.0974 104.347 77.1241 102.96C77.1507 101.547 77.0841 100.333 76.9241 99.32C76.7907 98.3067 76.6174 97.4667 76.4041 96.8C76.1907 96 75.9374 95.3333 75.6441 94.8C75.5107 94.4533 75.4307 94.0933 75.4041 93.72C75.3507 93.3733 75.3507 93 75.4041 92.6C75.4841 92.2 75.6307 91.7867 75.8441 91.36C76.0841 90.9333 76.3774 90.5733 76.7241 90.28C77.0707 89.9867 77.4307 89.76 77.8041 89.6C78.2041 89.4133 78.6041 89.28 79.0041 89.2C79.4041 89.0933 79.7641 89.0267 80.0841 89C80.4041 88.9733 80.7641 88.9867 81.1641 89.04C81.5907 89.0667 82.0707 89.1067 82.6041 89.16C83.1641 89.2133 83.7774 89.2533 84.4441 89.28C85.1107 89.3067 85.8707 89.3067 86.7241 89.28C87.6307 89.2533 88.4441 89.2 89.1641 89.12C89.9107 89.04 90.6174 89 91.2841 89C91.8441 89 92.3774 89.0667 92.8841 89.2C93.4174 89.3067 93.9374 89.52 94.4441 89.84ZM107.858 96.36C107.804 95.72 107.618 95.28 107.298 95.04C107.004 94.7733 106.684 94.64 106.338 94.64C106.178 94.64 106.018 94.6667 105.858 94.72C105.724 94.7733 105.591 94.8267 105.458 94.88C105.191 95.04 104.978 95.3733 104.818 95.88C104.658 96.36 104.604 96.92 104.658 97.56C104.711 98.2 104.884 98.8533 105.178 99.52C105.471 100.187 105.924 100.773 106.538 101.28C107.311 101.947 108.138 102.573 109.018 103.16C109.898 103.72 110.724 104.293 111.498 104.88C112.271 105.467 112.938 106.08 113.498 106.72C114.058 107.36 114.404 108.08 114.538 108.88C114.671 109.653 114.604 110.52 114.338 111.48C114.098 112.413 113.604 113.293 112.858 114.12C112.111 114.92 111.098 115.6 109.818 116.16C108.538 116.72 106.911 117 104.938 117C102.991 117 101.404 116.72 100.178 116.16C98.9778 115.6 98.0578 114.92 97.4178 114.12C96.8045 113.32 96.4311 112.48 96.2978 111.6C96.1645 110.693 96.1911 109.92 96.3778 109.28C96.6445 108.347 97.1111 107.653 97.7778 107.2C98.4445 106.72 99.1245 106.48 99.8178 106.48C100.431 106.48 100.978 106.64 101.458 106.96C101.831 107.2 102.204 107.4 102.578 107.56C102.978 107.72 103.351 107.8 103.698 107.8C104.151 107.8 104.524 107.667 104.818 107.4C105.138 107.107 105.284 106.613 105.258 105.92C105.258 105.307 105.138 104.8 104.898 104.4C104.658 103.973 104.324 103.573 103.898 103.2C103.471 102.8 102.964 102.387 102.378 101.96C101.818 101.507 101.204 100.947 100.538 100.28C99.8711 99.5867 99.3378 98.8133 98.9378 97.96C98.5378 97.08 98.3245 96.1867 98.2978 95.28C98.2711 94.3733 98.4578 93.5067 98.8578 92.68C99.2578 91.8267 99.9245 91.0933 100.858 90.48C101.631 89.9733 102.484 89.6 103.418 89.36C104.351 89.12 105.311 89 106.298 89C107.738 89 109.151 89.2533 110.538 89.76C111.924 90.2667 113.111 91.0267 114.098 92.04C114.924 92.8933 115.564 93.8 116.018 94.76C116.471 95.6933 116.738 96.6 116.818 97.48C116.924 98.36 116.844 99.1733 116.578 99.92C116.338 100.64 115.924 101.227 115.338 101.68C114.938 102 114.511 102.227 114.058 102.36C113.604 102.493 113.151 102.56 112.698 102.56C111.898 102.56 111.124 102.373 110.378 102C109.658 101.627 109.084 101.173 108.658 100.64C108.311 100.213 108.071 99.76 107.938 99.28C107.831 98.7733 107.764 98.3067 107.738 97.88C107.738 97.3733 107.778 96.8667 107.858 96.36ZM124.524 97.2C124.044 96.96 123.657 96.84 123.364 96.84C122.99 96.84 122.697 96.9733 122.484 97.24C122.27 97.48 122.004 97.7467 121.684 98.04C121.204 98.44 120.59 98.64 119.844 98.64C119.39 98.64 118.937 98.56 118.484 98.4C118.057 98.24 117.697 97.9867 117.404 97.64C117.137 97.32 116.924 96.9067 116.764 96.4C116.577 95.8667 116.51 95.32 116.564 94.76C116.59 94.1733 116.724 93.6133 116.964 93.08C117.23 92.52 117.644 92.0667 118.204 91.72C118.764 91.3467 119.644 90.9867 120.844 90.64C122.07 90.2667 123.43 89.9467 124.924 89.68C126.444 89.4133 128.017 89.2133 129.644 89.08C131.27 88.9467 132.764 88.9467 134.124 89.08C135.484 89.1867 136.577 89.4 137.404 89.72C138.257 90.0133 138.91 90.3733 139.364 90.8C139.817 91.2267 140.097 91.6933 140.204 92.2C140.337 92.7067 140.377 93.24 140.324 93.8C140.27 94.3333 140.097 94.8267 139.804 95.28C139.537 95.7333 139.217 96.1333 138.844 96.48C138.47 96.8 138.057 97.0667 137.604 97.28C137.177 97.4667 136.764 97.6 136.364 97.68C135.964 97.7333 135.59 97.7067 135.244 97.6C134.897 97.4933 134.564 97.36 134.244 97.2C133.924 97.04 133.617 96.8933 133.324 96.76C133.057 96.6267 132.79 96.5733 132.524 96.6C131.99 96.6267 131.644 96.9733 131.484 97.64C131.324 98.3067 131.124 99.28 130.884 100.56C130.777 101.173 130.724 101.813 130.724 102.48C130.724 103.147 130.777 103.88 130.884 104.68C131.017 105.48 131.19 106.373 131.404 107.36C131.644 108.347 131.924 109.467 132.244 110.72C132.59 111.973 132.644 113.013 132.404 113.84C132.19 114.64 131.817 115.28 131.284 115.76C130.777 116.213 130.177 116.533 129.484 116.72C128.79 116.907 128.15 117 127.564 117C126.364 117 125.417 116.707 124.724 116.12C124.057 115.533 123.684 114.747 123.604 113.76C123.55 113.28 123.564 112.827 123.644 112.4C123.724 111.947 123.844 111.427 124.004 110.84C124.164 110.253 124.337 109.56 124.524 108.76C124.737 107.96 124.937 106.96 125.124 105.76C125.31 104.533 125.377 103.413 125.324 102.4C125.297 101.36 125.217 100.453 125.084 99.68C124.95 98.7733 124.764 97.9467 124.524 97.2Z" fill="white"/>
</g>
<defs>
<clipPath id="clip0_6_2252">
<rect width="327" height="136" rx="24" fill="white"/>
</clipPath>
</defs>
</svg>
