<svg width="37" height="31" viewBox="0 0 37 31" fill="none" xmlns="http://www.w3.org/2000/svg">
<path d="M17.1596 1.75164C17.8446 1.58608 18.4597 1.61244 19.0049 1.83071C19.5892 2.01866 20.048 2.32705 20.3813 2.75588C20.7537 3.15439 20.9979 3.62959 21.1139 4.18148C21.2468 4.67445 21.1848 5.15835 20.9279 5.63317C20.6765 6.1955 20.2582 6.70412 19.673 7.15905C19.1268 7.58366 18.4469 7.99744 17.6335 8.40041C16.7979 8.77479 15.8173 9.28478 14.6918 9.93038C13.8616 10.3923 13.1677 10.9087 12.6101 11.4798C12.0303 12.0222 11.5033 12.5923 11.0292 13.1902C10.5719 13.7292 10.1172 14.3119 9.66534 14.9384C9.21344 15.5648 8.68079 16.2082 8.06739 16.8685C7.39275 17.5305 6.73516 17.9728 6.09461 18.1956C5.43183 18.3897 4.81104 18.4366 4.23223 18.3361C3.6312 18.2071 3.10277 17.9299 2.64694 17.5046C2.19112 17.0792 1.84394 16.5923 1.60542 16.0439C1.33381 15.2919 1.40173 14.5741 1.80919 13.8904C2.19442 13.1782 2.75769 12.534 3.499 11.9577C3.92818 11.6241 4.36007 11.3342 4.79468 11.0881C5.2683 10.8117 5.75304 10.5496 6.24889 10.3017C6.70572 10.0842 7.12082 9.85325 7.49419 9.60888C7.86755 9.36451 8.2103 9.12101 8.52243 8.87838C9.10768 8.42345 9.54253 8.01662 9.82701 7.6579C9.99987 7.47767 10.1532 7.3126 10.2871 7.16269C11.0511 6.2936 11.7398 5.52892 12.3532 4.86865C12.9666 4.20838 13.5659 3.65077 14.1512 3.19585C15.0095 2.52861 16.0123 2.04721 17.1596 1.75164Z" fill="white"/>
<path d="M17.1596 28.6978C17.8446 28.8634 18.4597 28.837 19.0049 28.6188C19.5892 28.4308 20.048 28.1224 20.3813 27.6936C20.7537 27.2951 20.9979 26.8199 21.1139 26.268C21.2468 25.775 21.1848 25.2911 20.9279 24.8163C20.6765 24.254 20.2582 23.7453 19.673 23.2904C19.1268 22.8658 18.4469 22.452 17.6335 22.049C16.7979 21.6747 15.8173 21.1647 14.6918 20.5191C13.8616 20.0572 13.1677 19.5407 12.6101 18.9697C12.0303 18.4273 11.5033 17.8571 11.0292 17.2592C10.5719 16.7203 10.1172 16.1376 9.66534 15.5111C9.21344 14.8846 8.68079 14.2413 8.06739 13.581C7.39275 12.919 6.73516 12.4766 6.09461 12.2539C5.43183 12.0597 4.81104 12.0129 4.23223 12.1133C3.6312 12.2423 3.10277 12.5195 2.64694 12.9449C2.19112 13.3702 1.84394 13.8571 1.60542 14.4055C1.33381 15.1576 1.40173 15.8754 1.80919 16.559C2.19442 17.2713 2.75769 17.9155 3.499 18.4917C3.92818 18.8254 4.36007 19.1152 4.79468 19.3613C5.2683 19.6378 5.75304 19.8999 6.24889 20.1478C6.70572 20.3653 7.12082 20.5962 7.49419 20.8406C7.86755 21.085 8.2103 21.3285 8.52243 21.5711C9.10768 22.026 9.54253 22.4328 9.82701 22.7916C9.99987 22.9718 10.1532 23.1369 10.2871 23.2868C11.0511 24.1559 11.7398 24.9205 12.3532 25.5808C12.9666 26.2411 13.5659 26.7987 14.1512 27.2536C15.0095 27.9208 16.0123 28.4023 17.1596 28.6978Z" fill="white"/>
<path d="M34.1353 12.7647C35.0841 13.0544 35.7775 13.4527 36.2154 13.9597C36.7263 14.4666 36.9817 14.9917 36.9817 15.5348C37.0547 16.078 36.9087 16.603 36.5438 17.11C36.2519 17.5807 35.741 17.9247 35.0111 18.142C34.2083 18.4317 33.2594 18.5765 32.1646 18.5765C31.1428 18.5765 29.9751 18.486 28.6613 18.3049C27.3476 18.0877 25.7419 17.8885 23.8442 17.7074C22.4575 17.5626 21.1802 17.5445 20.0125 17.6531C18.8447 17.7256 17.7134 17.8523 16.6186 18.0333C15.5968 18.1782 14.5385 18.3592 13.4437 18.5765C12.3489 18.7938 11.1446 18.9748 9.8309 19.1197C8.44416 19.2283 7.27639 19.174 6.32757 18.9567C5.37875 18.7032 4.61239 18.3592 4.0285 17.9247C3.44462 17.454 3.07969 16.9108 2.93371 16.2952C2.78774 15.6797 2.82423 15.0822 3.04319 14.5028C3.40812 13.7424 4.13798 13.2173 5.23278 12.9276C6.32757 12.6018 7.56833 12.4388 8.95507 12.4388C9.75791 12.4388 10.5243 12.475 11.2541 12.5474C12.057 12.6199 12.8598 12.7104 13.6627 12.819C14.3925 12.9276 15.0859 13.0001 15.7428 13.0363C16.3996 13.0725 17.02 13.0906 17.6039 13.0906C18.6987 13.0906 19.5745 13.0363 20.2314 12.9276C20.5963 12.8914 20.9248 12.8552 21.2167 12.819C22.8954 12.6018 24.3916 12.4207 25.7054 12.2759C27.0191 12.131 28.2234 12.0586 29.3182 12.0586C30.9239 12.0586 32.5296 12.294 34.1353 12.7647Z" fill="white"/>
</svg>
