<svg width="19" height="23" viewBox="0 0 19 23" fill="none" xmlns="http://www.w3.org/2000/svg">
<path d="M18.5038 1.92916C18.3003 1.2902 18.0204 0.823271 17.6641 0.528368C17.3079 0.184313 16.9389 0.0122851 16.5573 0.0122851C16.1756 -0.0368635 15.8066 0.0614394 15.4504 0.307192C15.1196 0.503794 14.8779 0.847849 14.7252 1.33936C14.5216 1.88001 14.4198 2.51896 14.4198 3.25622C14.4198 3.94433 14.4835 4.73074 14.6107 5.61545C14.7634 6.50016 14.9033 7.58147 15.0305 8.85939C15.1323 9.79325 15.145 10.6534 15.0687 11.4398C15.0178 12.2262 14.9288 12.988 14.8015 13.7253C14.6997 14.4134 14.5725 15.1261 14.4198 15.8633C14.2672 16.6006 14.1399 17.4116 14.0382 18.2963C13.9618 19.2302 14 20.0166 14.1527 20.6555C14.3308 21.2945 14.5725 21.8106 14.8779 22.2038C15.2087 22.597 15.5903 22.8427 16.0229 22.941C16.4555 23.0393 16.8753 23.0147 17.2824 22.8673C17.8168 22.6215 18.1858 22.13 18.3893 21.3928C18.6183 20.6555 18.7328 19.82 18.7328 18.8861C18.7328 18.3454 18.7074 17.8294 18.6565 17.3379C18.6056 16.7972 18.542 16.2565 18.4656 15.7159C18.3893 15.2244 18.3384 14.7575 18.313 14.3151C18.2875 13.8727 18.2748 13.455 18.2748 13.0618C18.2748 12.3245 18.313 11.7347 18.3893 11.2923C18.4148 11.0466 18.4402 10.8254 18.4656 10.6288C18.6183 9.49834 18.7455 8.49076 18.8473 7.60605C18.9491 6.72134 19 5.91035 19 5.1731C19 4.09179 18.8346 3.01047 18.5038 1.92916Z" fill="white"/>
<path d="M13.6456 11.5C13.6456 13.5 6.31227 14 2.64561 14C-0.854395 14 0.145606 11 1.14561 10C2.14561 9.00002 3.14561 7.50002 1.64561 5.50002C0.145606 3.50002 -0.254377 3 0.145606 2.00003C1.1456 -0.500008 10.6456 2.50041e-05 12.1456 0.500025C13.6456 1.00003 13.6456 9.00002 13.6456 11.5Z" fill="white"/>
</svg>
