<svg width="11" height="20" viewBox="0 0 11 20" fill="none" xmlns="http://www.w3.org/2000/svg">
<path opacity="0.7" d="M5.805 19.6H4.045V17.22C2.49833 17.0467 1.165 16.6533 0.0450001 16.04V13.8C1.485 14.72 3.13167 15.18 4.985 15.18C6.99833 15.18 8.005 14.6 8.005 13.44C8.005 12.9333 7.805 12.5133 7.405 12.18C7.01833 11.8333 6.53167 11.58 5.945 11.42C5.37167 11.26 4.73833 11.0667 4.045 10.84C3.365 10.6133 2.73167 10.3733 2.145 10.12C1.57167 9.86667 1.085 9.47333 0.685 8.94C0.298333 8.39333 0.105 7.73333 0.105 6.96C0.105 5.86667 0.465 5 1.185 4.36C1.91833 3.72 2.87167 3.33333 4.045 3.2V0.799999H5.805V3.18C7.25833 3.28667 8.465 3.62667 9.425 4.2V6.38C8.23833 5.58 6.83833 5.19333 5.225 5.22C3.35833 5.22 2.425 5.78667 2.425 6.92C2.425 7.38667 2.61833 7.78 3.005 8.1C3.405 8.42 3.89167 8.66 4.465 8.82C5.05167 8.96667 5.685 9.15333 6.365 9.38C7.05833 9.60667 7.69167 9.85333 8.265 10.12C8.85167 10.3733 9.33833 10.7733 9.725 11.32C10.125 11.8667 10.325 12.5333 10.325 13.32C10.325 14.5867 9.91167 15.54 9.085 16.18C8.25833 16.8067 7.165 17.16 5.805 17.24V19.6Z" fill="#2670AD"/>
</svg>
