<svg width="327" height="136" viewBox="0 0 327 136" fill="none" xmlns="http://www.w3.org/2000/svg">
<g clip-path="url(#clip0_6_2226)">
<rect width="327" height="136" rx="24" fill="#DEF0FF"/>
<path d="M158.316 138.575C139.597 163.251 161.332 199.14 195.801 175.063L362.728 75.8285C411.78 35.0251 359.644 9.28703 344.151 28.1006C334.384 9.02715 305.326 9.16415 294.797 29.9643C283.919 -2.77642 246.769 3.81349 240.742 28.3151C215.919 7.41039 188.561 34.6317 199.412 52.8849C168.569 44.7232 148.2 73.466 175.484 96.4934C152.098 87.0864 127.726 122.095 158.316 138.575Z" fill="#7EBEF3"/>
<circle cx="152" cy="88" r="48" fill="#EDD582"/>
<path d="M153.472 152.913C171.543 176.524 129.993 215.829 96.8041 192.858L-63.8527 98.2823C-111.111 59.3137 -50.3096 16.1071 -35.3586 34.104C-26.0611 15.7535 1.83441 15.7651 12.0285 35.6897C22.3364 4.21402 48.4935 2.08125 56.8709 26.5767C82.6893 9.74068 111.391 33.1996 103.692 57.2998C129.063 54.1319 146.092 81.5577 126.842 99.0648C157.376 96.6484 178.738 127.544 153.472 152.913Z" fill="#2670AD"/>
<path d="M360.161 119.452C384.179 126.671 373.5 170.597 339.094 170.525L180.46 180.928C128.491 176.778 150.928 121.753 170.068 126.732C167.909 110.723 187.644 98.3051 204.336 106.649C196.646 81.7027 214.13 68.672 231.713 80.7813C241.96 58.3931 273.424 60.7787 279.449 79.7937C295.885 66.4434 320.981 76.5943 315.699 96.4906C336.144 81.3266 365.956 91.7911 360.161 119.452Z" fill="#2670AD"/>
<path d="M33.4352 93.36C33.8352 93.68 34.2485 94.04 34.6752 94.44C35.1018 94.84 35.4885 95.3333 35.8352 95.92C36.1818 96.48 36.4618 97.1733 36.6752 98C36.8885 98.8267 36.9952 99.8133 36.9952 100.96C36.9952 102.107 36.8885 103.307 36.6752 104.56C36.4885 105.787 36.2085 107.027 35.8352 108.28C35.4618 109.507 34.9818 110.72 34.3952 111.92C33.8352 113.12 33.1685 114.267 32.3952 115.36C31.6485 116.453 30.8618 117.307 30.0352 117.92C29.2085 118.533 28.3952 119 27.5952 119.32C26.8218 119.613 26.0885 119.8 25.3952 119.88C24.7285 119.96 24.1552 120 23.6752 120C23.1952 120 22.6485 120 22.0352 120C21.4218 119.973 20.8085 119.947 20.1952 119.92C19.6085 119.867 19.0618 119.8 18.5552 119.72C18.0485 119.613 17.6752 119.48 17.4352 119.32C16.9285 118.973 16.4752 118.453 16.0752 117.76C15.6752 117.04 15.4885 116.36 15.5152 115.72C15.5418 115.4 15.5952 115.08 15.6752 114.76C15.7818 114.413 15.8885 114.04 15.9952 113.64C16.1018 113.24 16.2085 112.787 16.3152 112.28C16.4218 111.747 16.5018 111.107 16.5552 110.36C16.5818 109.907 16.5818 109.253 16.5552 108.4C16.5552 107.547 16.5285 106.613 16.4752 105.6C16.4485 104.56 16.3952 103.507 16.3152 102.44C16.2618 101.373 16.1952 100.4 16.1152 99.52C15.7952 99.44 15.5152 99.2933 15.2752 99.08C15.0352 98.84 14.8352 98.5733 14.6752 98.28C14.5418 97.96 14.4352 97.64 14.3552 97.32C14.2752 96.9733 14.2085 96.6533 14.1552 96.36C14.0752 95.72 14.1685 95.1467 14.4352 94.64C14.7285 94.1067 15.1018 93.6533 15.5552 93.28C16.0085 92.9067 16.4752 92.6267 16.9552 92.44C17.4352 92.2267 17.8352 92.12 18.1552 92.12C18.5285 92.1467 18.9152 92.1867 19.3152 92.24C19.7418 92.2667 20.2752 92.28 20.9152 92.28C21.2885 92.28 21.7152 92.2667 22.1952 92.24C22.7018 92.2133 23.2752 92.1733 23.9152 92.12C24.7685 92.04 25.6485 92 26.5552 92C27.2485 92 27.9418 92.0267 28.6352 92.08C29.3285 92.1333 29.9685 92.2267 30.5552 92.36C31.1685 92.4667 31.7152 92.6 32.1952 92.76C32.7018 92.92 33.1152 93.12 33.4352 93.36ZM27.3952 108.88C27.7952 108.107 28.1018 107.267 28.3152 106.36C28.5552 105.453 28.7152 104.56 28.7952 103.68C28.9018 102.773 28.9285 101.92 28.8752 101.12C28.8485 100.293 28.7685 99.5867 28.6352 99C28.4485 98.2533 28.1685 97.7333 27.7952 97.44C27.4485 97.12 27.0485 96.96 26.5952 96.96C25.8218 96.96 25.1418 97.2 24.5552 97.68C23.9685 98.16 23.4752 98.7467 23.0752 99.44C22.6752 100.133 22.3552 100.88 22.1152 101.68C21.9018 102.453 21.7552 103.147 21.6752 103.76C21.5685 104.56 21.5285 105.387 21.5552 106.24C21.5818 107.067 21.6218 107.827 21.6752 108.52C21.7285 109.347 21.8218 110.133 21.9552 110.88C22.4885 111.413 23.1152 111.68 23.8352 111.68C24.4485 111.68 25.0752 111.453 25.7152 111C26.3552 110.547 26.9152 109.84 27.3952 108.88ZM56.5211 113.6C56.8944 114.373 57.0944 115.147 57.1211 115.92C57.1744 116.693 57.0411 117.387 56.7211 118C56.4278 118.613 55.9478 119.12 55.2811 119.52C54.6144 119.893 53.7611 120.08 52.7211 120.08C51.6811 120.08 50.8411 119.88 50.2011 119.48C49.5611 119.08 49.0544 118.6 48.6811 118.04C48.3078 117.453 48.0278 116.853 47.8411 116.24C47.6544 115.627 47.4944 115.107 47.3611 114.68C47.0944 113.96 46.7611 113.6 46.3611 113.6C46.0678 113.6 45.8011 113.827 45.5611 114.28C45.3211 114.733 45.1744 115.493 45.1211 116.56C45.0678 117.467 44.9078 118.173 44.6411 118.68C44.4011 119.16 44.0944 119.507 43.7211 119.72C43.3744 119.933 42.9878 120.053 42.5611 120.08C42.1344 120.107 41.7211 120.107 41.3211 120.08C40.7344 120.027 40.1744 119.92 39.6411 119.76C39.1344 119.6 38.7211 119.347 38.4011 119C38.0811 118.627 37.8811 118.133 37.8011 117.52C37.7211 116.907 37.8144 116.12 38.0811 115.16C38.3744 114.2 38.5344 113.28 38.5611 112.4C38.5878 111.493 38.5478 110.587 38.4411 109.68C38.3344 108.747 38.1878 107.773 38.0011 106.76C37.8411 105.747 37.7211 104.653 37.6411 103.48C37.5344 102.307 37.6411 101.027 37.9611 99.64C38.3078 98.2533 38.9078 96.9867 39.7611 95.84C40.6144 94.6667 41.7611 93.7067 43.2011 92.96C44.6411 92.2133 46.4144 91.9067 48.5211 92.04C49.9344 92.12 51.0944 92.3467 52.0011 92.72C52.9078 93.0933 53.6278 93.5733 54.1611 94.16C54.6944 94.7467 55.0678 95.4133 55.2811 96.16C55.4944 96.9067 55.6144 97.6667 55.6411 98.44C55.6944 99.2133 55.6678 99.9867 55.5611 100.76C55.4811 101.533 55.4144 102.253 55.3611 102.92C55.1478 104.92 55.0944 106.813 55.2011 108.6C55.3078 110.36 55.7478 112.027 56.5211 113.6ZM48.5211 103.52C48.6544 102 48.5211 100.813 48.1211 99.96C47.7211 99.08 47.1211 98.6667 46.3211 98.72C45.9211 98.7467 45.5478 99.0267 45.2011 99.56C44.8811 100.093 44.6011 100.747 44.3611 101.52C44.1211 102.293 43.9344 103.147 43.8011 104.08C43.6678 105.013 43.6011 105.893 43.6011 106.72C43.6011 107.547 43.6278 108.227 43.6811 108.76C43.7611 109.293 43.8544 109.707 43.9611 110C44.0944 110.293 44.2411 110.507 44.4011 110.64C44.5611 110.773 44.7344 110.853 44.9211 110.88C45.1078 110.907 45.4011 110.907 45.8011 110.88C46.2011 110.853 46.6011 110.813 47.0011 110.76C47.4811 110.68 47.9878 110.6 48.5211 110.52C48.4678 109.747 48.4411 108.96 48.4411 108.16C48.4144 107.467 48.4011 106.72 48.4011 105.92C48.4278 105.093 48.4678 104.293 48.5211 103.52ZM61.0914 92.36C62.1847 92.2533 63.0114 92.4 63.5714 92.8C64.1314 93.1733 64.5047 93.64 64.6914 94.2C64.9047 94.7333 64.9847 95.28 64.9314 95.84C64.8781 96.4 64.7714 96.8 64.6114 97.04C64.4514 97.28 64.1981 97.7333 63.8514 98.4C63.5314 99.04 63.2647 99.72 63.0514 100.44C62.8381 101.16 62.7714 101.853 62.8514 102.52C62.9581 103.16 63.3581 103.6 64.0514 103.84C64.3447 103.947 64.6647 104 65.0114 104C65.5447 104 66.0114 103.853 66.4114 103.56C66.8381 103.267 67.1847 102.92 67.4514 102.52C67.7447 102.093 67.9581 101.653 68.0914 101.2C68.2247 100.747 68.2781 100.36 68.2514 100.04C68.2247 99.6667 68.1447 99.3467 68.0114 99.08C67.9047 98.7867 67.7847 98.4933 67.6514 98.2C67.5181 97.9067 67.3847 97.6 67.2514 97.28C67.1181 96.9333 67.0381 96.5333 67.0114 96.08C66.9847 95.6267 67.1314 95.1467 67.4514 94.64C67.7714 94.1333 68.2114 93.68 68.7714 93.28C69.3314 92.88 69.9847 92.56 70.7314 92.32C71.4781 92.0533 72.2647 91.9467 73.0914 92C73.9181 92.0533 74.5981 92.2533 75.1314 92.6C75.6647 92.9467 76.0514 93.4 76.2914 93.96C76.5581 94.4933 76.6781 95.1067 76.6514 95.8C76.6514 96.4933 76.5047 97.2 76.2114 97.92C75.9447 98.64 75.7447 99.32 75.6114 99.96C75.5047 100.573 75.4381 101.293 75.4114 102.12C75.3847 102.947 75.4114 103.947 75.4914 105.12C75.5714 106.293 75.6647 107.787 75.7714 109.6C75.9047 111.413 75.7047 112.973 75.1714 114.28C74.6381 115.587 73.9047 116.667 72.9714 117.52C72.0647 118.373 70.9981 119 69.7714 119.4C68.5714 119.8 67.3314 120 66.0514 120C64.7981 120 63.7447 119.827 62.8914 119.48C62.0381 119.133 61.3447 118.707 60.8114 118.2C60.3047 117.667 59.9181 117.08 59.6514 116.44C59.3847 115.8 59.2114 115.2 59.1314 114.64C59.0514 114.08 59.0781 113.533 59.2114 113C59.3714 112.467 59.5847 112 59.8514 111.6C60.1447 111.173 60.4781 110.827 60.8514 110.56C61.2247 110.293 61.6114 110.147 62.0114 110.12C62.5981 110.067 63.2247 110.08 63.8914 110.16C64.5581 110.24 65.1981 110.28 65.8114 110.28C66.0514 110.28 66.2781 110.267 66.4914 110.24C66.7314 110.213 66.9581 110.173 67.1714 110.12C67.9447 109.907 68.4914 109.6 68.8114 109.2C69.1314 108.773 69.1447 108.373 68.8514 108C68.6914 107.76 68.4647 107.64 68.1714 107.64C67.9047 107.64 67.5447 107.733 67.0914 107.92C66.6381 108.107 65.9981 108.36 65.1714 108.68C64.6647 108.893 64.1447 109.053 63.6114 109.16C63.1047 109.24 62.6114 109.28 62.1314 109.28C61.3581 109.28 60.6514 109.173 60.0114 108.96C59.3981 108.72 58.8647 108.373 58.4114 107.92C58.0647 107.547 57.8514 107.04 57.7714 106.4C57.7181 105.733 57.7047 105.04 57.7314 104.32C57.7847 103.6 57.8514 102.88 57.9314 102.16C58.0114 101.413 58.0247 100.773 57.9714 100.24C57.9181 99.7067 57.7981 99.2267 57.6114 98.8C57.4247 98.3467 57.2514 97.9067 57.0914 97.48C56.9314 97.0533 56.8381 96.6133 56.8114 96.16C56.7847 95.68 56.9181 95.1467 57.2114 94.56C57.5047 93.9733 57.8647 93.5333 58.2914 93.24C58.7181 92.9467 59.1447 92.7333 59.5714 92.6C60.0514 92.44 60.5581 92.36 61.0914 92.36Z" fill="white"/>
</g>
<defs>
<clipPath id="clip0_6_2226">
<rect width="327" height="136" rx="24" fill="white"/>
</clipPath>
</defs>
</svg>
