<svg width="22" height="19" viewBox="0 0 22 19" fill="none" xmlns="http://www.w3.org/2000/svg">
<path d="M20.1547 0.496184C20.7659 0.699746 21.2125 0.979644 21.4946 1.33588C21.8237 1.69211 21.9882 2.06107 21.9882 2.44275C22.0353 2.82443 21.9412 3.19338 21.7062 3.54962C21.5181 3.88041 21.189 4.12214 20.7189 4.27481C20.2017 4.47837 19.5906 4.58015 18.8854 4.58015C18.2272 4.58015 17.4749 4.51654 16.6287 4.38931C15.7825 4.23664 14.7482 4.09669 13.5258 3.96947C12.6325 3.86768 11.8098 3.85496 11.0576 3.9313C10.3054 3.98219 9.57666 4.07125 8.87146 4.19847C8.21327 4.30025 7.53157 4.42748 6.82637 4.58015C6.12117 4.73282 5.34544 4.86005 4.4992 4.96183C3.60594 5.03817 2.85372 5 2.24255 4.84733C1.63137 4.66921 1.13773 4.42748 0.76162 4.12214C0.385511 3.79135 0.150443 3.40967 0.0564163 2.9771C-0.0376109 2.54453 -0.0141041 2.12468 0.126937 1.71756C0.362005 1.18321 0.83214 0.81425 1.53734 0.610687C2.24255 0.381679 3.04178 0.267176 3.93504 0.267176C4.45218 0.267176 4.94583 0.292621 5.41596 0.343512C5.93311 0.394402 6.45026 0.458015 6.96741 0.534351C7.43755 0.610687 7.88418 0.661577 8.3073 0.687023C8.73042 0.712468 9.13003 0.725191 9.50614 0.725191C10.2113 0.725191 10.7755 0.687023 11.1986 0.610687C11.4337 0.585242 11.6453 0.559797 11.8333 0.534351C12.9146 0.38168 13.8784 0.254453 14.7246 0.152672C15.5709 0.0508907 16.3466 0 17.0518 0C18.0861 0 19.1204 0.165395 20.1547 0.496184Z" fill="white"/>
<path d="M20.1547 7.49618C20.7659 7.69975 21.2125 7.97964 21.4946 8.33588C21.8237 8.69211 21.9882 9.06107 21.9882 9.44275C22.0353 9.82443 21.9412 10.1934 21.7062 10.5496C21.5181 10.8804 21.189 11.1221 20.7189 11.2748C20.2017 11.4784 19.5906 11.5802 18.8854 11.5802C18.2272 11.5802 17.4749 11.5165 16.6287 11.3893C15.7825 11.2366 14.7482 11.0967 13.5258 10.9695C12.6325 10.8677 11.8098 10.855 11.0576 10.9313C10.3054 10.9822 9.57666 11.0712 8.87146 11.1985C8.21327 11.3003 7.53157 11.4275 6.82637 11.5802C6.12117 11.7328 5.34544 11.8601 4.4992 11.9618C3.60594 12.0382 2.85372 12 2.24255 11.8473C1.63137 11.6692 1.13773 11.4275 0.76162 11.1221C0.385511 10.7913 0.150443 10.4097 0.0564163 9.9771C-0.0376109 9.54453 -0.0141041 9.12468 0.126937 8.71756C0.362005 8.18321 0.83214 7.81425 1.53734 7.61069C2.24255 7.38168 3.04178 7.26718 3.93504 7.26718C4.45218 7.26718 4.94583 7.29262 5.41596 7.34351C5.93311 7.3944 6.45026 7.45802 6.96741 7.53435C7.43755 7.61069 7.88418 7.66158 8.3073 7.68702C8.73042 7.71247 9.13003 7.72519 9.50614 7.72519C10.2113 7.72519 10.7755 7.68702 11.1986 7.61069C11.4337 7.58524 11.6453 7.5598 11.8333 7.53435C12.9146 7.38168 13.8784 7.25445 14.7246 7.15267C15.5709 7.05089 16.3466 7 17.0518 7C18.0861 7 19.1204 7.16539 20.1547 7.49618Z" fill="white"/>
<path d="M20.1547 14.4962C20.7659 14.6997 21.2125 14.9796 21.4946 15.3359C21.8237 15.6921 21.9882 16.0611 21.9882 16.4427C22.0353 16.8244 21.9412 17.1934 21.7062 17.5496C21.5181 17.8804 21.189 18.1221 20.7189 18.2748C20.2017 18.4784 19.5906 18.5802 18.8854 18.5802C18.2272 18.5802 17.4749 18.5165 16.6287 18.3893C15.7825 18.2366 14.7482 18.0967 13.5258 17.9695C12.6325 17.8677 11.8098 17.855 11.0576 17.9313C10.3054 17.9822 9.57666 18.0712 8.87146 18.1985C8.21327 18.3003 7.53157 18.4275 6.82637 18.5802C6.12117 18.7328 5.34544 18.8601 4.4992 18.9618C3.60594 19.0382 2.85372 19 2.24255 18.8473C1.63137 18.6692 1.13773 18.4275 0.76162 18.1221C0.385511 17.7913 0.150443 17.4097 0.0564163 16.9771C-0.0376109 16.5445 -0.0141041 16.1247 0.126937 15.7176C0.362005 15.1832 0.83214 14.8142 1.53734 14.6107C2.24255 14.3817 3.04178 14.2672 3.93504 14.2672C4.45218 14.2672 4.94583 14.2926 5.41596 14.3435C5.93311 14.3944 6.45026 14.458 6.96741 14.5344C7.43755 14.6107 7.88418 14.6616 8.3073 14.687C8.73042 14.7125 9.13003 14.7252 9.50614 14.7252C10.2113 14.7252 10.7755 14.687 11.1986 14.6107C11.4337 14.5852 11.6453 14.5598 11.8333 14.5344C12.9146 14.3817 13.8784 14.2545 14.7246 14.1527C15.5709 14.0509 16.3466 14 17.0518 14C18.0861 14 19.1204 14.1654 20.1547 14.4962Z" fill="white"/>
</svg>
