<svg width="80" height="80" viewBox="0 0 80 80" fill="none" xmlns="http://www.w3.org/2000/svg">
<circle cx="40" cy="40" r="40" fill="white"/>
<path d="M43.6743 22.7744C43.2672 21.5243 42.7074 20.6108 41.9949 20.0338C41.2824 19.3606 40.5445 19.024 39.7812 19.024C39.0178 18.9279 38.2799 19.1202 37.5674 19.601C36.9059 19.9857 36.4224 20.6588 36.117 21.6205C35.7099 22.6783 35.5064 23.9284 35.5064 25.3709C35.5064 26.7172 35.6336 28.2558 35.888 29.9868C36.1934 31.7177 36.4733 33.8333 36.7277 36.3336C36.9313 38.1607 36.9567 39.8436 36.8041 41.3822C36.7023 42.9208 36.5242 44.4114 36.2697 45.8538C36.0662 47.2001 35.8117 48.5945 35.5064 50.037C35.201 51.4794 34.9466 53.0661 34.743 54.7971C34.5903 56.6242 34.6667 58.1628 34.972 59.413C35.3282 60.6631 35.8117 61.6728 36.4224 62.4421C37.084 63.2115 37.8473 63.6923 38.7125 63.8846C39.5776 64.0769 40.4173 64.0288 41.2315 63.7404C42.3003 63.2595 43.0382 62.2979 43.4453 60.8554C43.9033 59.413 44.1323 57.7782 44.1323 55.9511C44.1323 54.8933 44.0814 53.8835 43.9796 52.9219C43.8779 51.8641 43.7506 50.8063 43.598 49.7485C43.4453 48.7868 43.3435 47.8733 43.2926 47.0078C43.2417 46.1423 43.2163 45.3249 43.2163 44.5556C43.2163 43.1132 43.2926 41.9592 43.4453 41.0937C43.4962 40.6129 43.5471 40.1802 43.598 39.7955C43.9033 37.5837 44.1578 35.6124 44.3613 33.8814C44.5649 32.1504 44.6667 30.5637 44.6667 29.1213C44.6667 27.0057 44.3359 24.8901 43.6743 22.7744Z" fill="#7EBEF3"/>
<path d="M59.2256 44.6743C60.4757 44.2672 61.3892 43.7074 61.9662 42.9949C62.6394 42.2824 62.976 41.5445 62.976 40.7812C63.0721 40.0178 62.8798 39.2799 62.399 38.5674C62.0143 37.9058 61.3412 37.4224 60.3795 37.117C59.3217 36.7099 58.0716 36.5064 56.6291 36.5064C55.2828 36.5064 53.7442 36.6336 52.0132 36.888C50.2823 37.1934 48.1667 37.4733 45.6664 37.7277C43.8393 37.9313 42.1564 37.9567 40.6178 37.8041C39.0792 37.7023 37.5886 37.5242 36.1462 37.2697C34.7999 37.0661 33.4055 36.8117 31.963 36.5064C30.5206 36.201 28.9339 35.9466 27.2029 35.743C25.3758 35.5903 23.8372 35.6667 22.587 35.972C21.3369 36.3282 20.3272 36.8117 19.5579 37.4224C18.7885 38.084 18.3077 38.8473 18.1154 39.7125C17.9231 40.5776 17.9712 41.4173 18.2596 42.2315C18.7405 43.3002 19.7021 44.0382 21.1446 44.4453C22.587 44.9033 24.2218 45.1323 26.0489 45.1323C27.1067 45.1323 28.1165 45.0814 29.0781 44.9796C30.1359 44.8779 31.1937 44.7506 32.2515 44.598C33.2132 44.4453 34.1267 44.3435 34.9922 44.2926C35.8577 44.2417 36.6751 44.2163 37.4444 44.2163C38.8868 44.2163 40.0408 44.2926 40.9063 44.4453C41.3871 44.4962 41.8198 44.5471 42.2045 44.598C44.4163 44.9033 46.3876 45.1577 48.1186 45.3613C49.8496 45.5649 51.4363 45.6667 52.8787 45.6667C54.9943 45.6667 57.1099 45.3359 59.2256 44.6743Z" fill="#7EBEF3"/>
</svg>
